G04 #@! TF.GenerationSoftware,KiCad,Pcbnew,8.0.6*
G04 #@! TF.CreationDate,2024-12-30T13:43:42+01:00*
G04 #@! TF.ProjectId,UselessBox,5573656c-6573-4734-926f-782e6b696361,rev?*
G04 #@! TF.SameCoordinates,Original*
G04 #@! TF.FileFunction,Copper,L2,Bot*
G04 #@! TF.FilePolarity,Positive*
%FSLAX46Y46*%
G04 Gerber Fmt 4.6, Leading zero omitted, Abs format (unit mm)*
G04 Created by KiCad (PCBNEW 8.0.6) date 2024-12-30 13:43:42*
%MOMM*%
%LPD*%
G01*
G04 APERTURE LIST*
G04 Aperture macros list*
%AMRoundRect*
0 Rectangle with rounded corners*
0 $1 Rounding radius*
0 $2 $3 $4 $5 $6 $7 $8 $9 X,Y pos of 4 corners*
0 Add a 4 corners polygon primitive as box body*
4,1,4,$2,$3,$4,$5,$6,$7,$8,$9,$2,$3,0*
0 Add four circle primitives for the rounded corners*
1,1,$1+$1,$2,$3*
1,1,$1+$1,$4,$5*
1,1,$1+$1,$6,$7*
1,1,$1+$1,$8,$9*
0 Add four rect primitives between the rounded corners*
20,1,$1+$1,$2,$3,$4,$5,0*
20,1,$1+$1,$4,$5,$6,$7,0*
20,1,$1+$1,$6,$7,$8,$9,0*
20,1,$1+$1,$8,$9,$2,$3,0*%
G04 Aperture macros list end*
G04 #@! TA.AperFunction,ComponentPad*
%ADD10R,1.700000X1.700000*%
G04 #@! TD*
G04 #@! TA.AperFunction,ComponentPad*
%ADD11O,1.700000X1.700000*%
G04 #@! TD*
G04 #@! TA.AperFunction,ComponentPad*
%ADD12R,2.500000X2.500000*%
G04 #@! TD*
G04 #@! TA.AperFunction,ComponentPad*
%ADD13C,2.500000*%
G04 #@! TD*
G04 #@! TA.AperFunction,ComponentPad*
%ADD14R,1.600000X1.600000*%
G04 #@! TD*
G04 #@! TA.AperFunction,ComponentPad*
%ADD15O,1.600000X1.600000*%
G04 #@! TD*
G04 #@! TA.AperFunction,ComponentPad*
%ADD16RoundRect,0.250000X0.450000X-0.450000X0.450000X0.450000X-0.450000X0.450000X-0.450000X-0.450000X0*%
G04 #@! TD*
G04 #@! TA.AperFunction,ComponentPad*
%ADD17C,1.400000*%
G04 #@! TD*
G04 #@! TA.AperFunction,ComponentPad*
%ADD18R,1.560000X1.560000*%
G04 #@! TD*
G04 #@! TA.AperFunction,ComponentPad*
%ADD19C,1.560000*%
G04 #@! TD*
G04 #@! TA.AperFunction,ComponentPad*
%ADD20C,1.600000*%
G04 #@! TD*
G04 #@! TA.AperFunction,ComponentPad*
%ADD21R,1.500000X1.050000*%
G04 #@! TD*
G04 #@! TA.AperFunction,ComponentPad*
%ADD22O,1.500000X1.050000*%
G04 #@! TD*
G04 #@! TA.AperFunction,ComponentPad*
%ADD23R,1.905000X2.000000*%
G04 #@! TD*
G04 #@! TA.AperFunction,ComponentPad*
%ADD24O,1.905000X2.000000*%
G04 #@! TD*
G04 #@! TA.AperFunction,ViaPad*
%ADD25C,6.000000*%
G04 #@! TD*
G04 #@! TA.AperFunction,Conductor*
%ADD26C,0.600000*%
G04 #@! TD*
G04 #@! TA.AperFunction,Conductor*
%ADD27C,1.500000*%
G04 #@! TD*
G04 APERTURE END LIST*
D10*
X168420000Y-87500000D03*
D11*
X170960000Y-87500000D03*
X173500000Y-87500000D03*
D12*
X134500000Y-70500000D03*
D13*
X134500000Y-75500000D03*
D12*
X134500000Y-81500000D03*
D13*
X134500000Y-86500000D03*
D14*
X164620000Y-90800000D03*
D15*
X164620000Y-88260000D03*
X164620000Y-85720000D03*
X164620000Y-83180000D03*
X157000000Y-83180000D03*
X157000000Y-85720000D03*
X157000000Y-88260000D03*
X157000000Y-90800000D03*
D14*
X156700000Y-66700000D03*
D15*
X156700000Y-69240000D03*
X156700000Y-71780000D03*
X156700000Y-74320000D03*
X164320000Y-74320000D03*
X164320000Y-71780000D03*
X164320000Y-69240000D03*
X164320000Y-66700000D03*
D16*
X142200000Y-93000000D03*
D17*
X142200000Y-90500000D03*
X142200000Y-88000000D03*
X145500000Y-88000000D03*
X145500000Y-90500000D03*
X145500000Y-93000000D03*
D18*
X154000000Y-85740000D03*
D19*
X151500000Y-80740000D03*
X149000000Y-85740000D03*
D18*
X154000000Y-93680000D03*
D19*
X151500000Y-88680000D03*
X149000000Y-93680000D03*
D20*
X145500000Y-83000000D03*
D15*
X145500000Y-75380000D03*
D20*
X149000000Y-72500000D03*
D15*
X141380000Y-72500000D03*
D20*
X141380000Y-69000000D03*
D15*
X149000000Y-69000000D03*
D20*
X174810000Y-71500000D03*
D15*
X167190000Y-71500000D03*
X167190000Y-75000000D03*
D20*
X174810000Y-75000000D03*
D21*
X152640000Y-74730000D03*
D22*
X152640000Y-76000000D03*
X152640000Y-77270000D03*
D23*
X143920000Y-65000000D03*
D24*
X146460000Y-65000000D03*
X149000000Y-65000000D03*
D20*
X142500000Y-78000000D03*
X142500000Y-83000000D03*
D14*
X172500000Y-81000000D03*
D20*
X169000000Y-81000000D03*
X157000000Y-94000000D03*
X162000000Y-94000000D03*
X159000000Y-80000000D03*
X164000000Y-80000000D03*
X164000000Y-77470000D03*
X159000000Y-77470000D03*
X153500000Y-71500000D03*
X153500000Y-66500000D03*
D25*
X173000000Y-93000000D03*
X173000000Y-64000000D03*
X133500000Y-93000000D03*
X133500000Y-64000000D03*
D26*
X159200000Y-90800000D02*
X157000000Y-90800000D01*
X162820000Y-83180000D02*
X162000000Y-84000000D01*
X162000000Y-84000000D02*
X162000000Y-88000000D01*
X164620000Y-83180000D02*
X162820000Y-83180000D01*
X162000000Y-88000000D02*
X159200000Y-90800000D01*
X172500000Y-71500000D02*
X169000000Y-75000000D01*
X169000000Y-75000000D02*
X167190000Y-75000000D01*
X174810000Y-71500000D02*
X172500000Y-71500000D01*
D27*
X134500000Y-81500000D02*
X134500000Y-75500000D01*
D26*
X158457500Y-69240000D02*
X156700000Y-69240000D01*
X164320000Y-71780000D02*
X160997500Y-71780000D01*
X160997500Y-71780000D02*
X158457500Y-69240000D01*
D27*
X149000000Y-65500000D02*
X149000000Y-65000000D01*
X145500000Y-69000000D02*
X149000000Y-65500000D01*
X141380000Y-69000000D02*
X145500000Y-69000000D01*
X138500000Y-70500000D02*
X140000000Y-69000000D01*
X134500000Y-70500000D02*
X138500000Y-70500000D01*
X140000000Y-69000000D02*
X141380000Y-69000000D01*
G04 #@! TA.AperFunction,Conductor*
G36*
X175942539Y-61020185D02*
G01*
X175988294Y-61072989D01*
X175999500Y-61124500D01*
X175999500Y-70892683D01*
X175979815Y-70959722D01*
X175927011Y-71005477D01*
X175857853Y-71015421D01*
X175794297Y-70986396D01*
X175764500Y-70947956D01*
X175749673Y-70918179D01*
X175735568Y-70899500D01*
X175626762Y-70755418D01*
X175476041Y-70618019D01*
X175476039Y-70618017D01*
X175302642Y-70510655D01*
X175302635Y-70510651D01*
X175207546Y-70473814D01*
X175112456Y-70436976D01*
X174911976Y-70399500D01*
X174708024Y-70399500D01*
X174507544Y-70436976D01*
X174507541Y-70436976D01*
X174507541Y-70436977D01*
X174317364Y-70510651D01*
X174317357Y-70510655D01*
X174143960Y-70618017D01*
X174143958Y-70618019D01*
X173993237Y-70755418D01*
X173921642Y-70850227D01*
X173865533Y-70891863D01*
X173822688Y-70899500D01*
X172420940Y-70899500D01*
X172380019Y-70910464D01*
X172380019Y-70910465D01*
X172342751Y-70920451D01*
X172268214Y-70940423D01*
X172268209Y-70940426D01*
X172131290Y-71019475D01*
X172131282Y-71019481D01*
X172050025Y-71100739D01*
X172019480Y-71131284D01*
X172019478Y-71131286D01*
X170400765Y-72750000D01*
X168787584Y-74363181D01*
X168726261Y-74396666D01*
X168699903Y-74399500D01*
X168177312Y-74399500D01*
X168110273Y-74379815D01*
X168078358Y-74350227D01*
X168006762Y-74255418D01*
X167856041Y-74118019D01*
X167856039Y-74118017D01*
X167682642Y-74010655D01*
X167682635Y-74010651D01*
X167587546Y-73973814D01*
X167492456Y-73936976D01*
X167291976Y-73899500D01*
X167088024Y-73899500D01*
X166887544Y-73936976D01*
X166887541Y-73936976D01*
X166887541Y-73936977D01*
X166697364Y-74010651D01*
X166697357Y-74010655D01*
X166523960Y-74118017D01*
X166523958Y-74118019D01*
X166373237Y-74255418D01*
X166250327Y-74418178D01*
X166159422Y-74600739D01*
X166159417Y-74600752D01*
X166103602Y-74796917D01*
X166084785Y-74999999D01*
X166084785Y-75000000D01*
X166103602Y-75203082D01*
X166159417Y-75399247D01*
X166159422Y-75399260D01*
X166250327Y-75581821D01*
X166373237Y-75744581D01*
X166523958Y-75881980D01*
X166523960Y-75881982D01*
X166583249Y-75918692D01*
X166697363Y-75989348D01*
X166887544Y-76063024D01*
X167088024Y-76100500D01*
X167088026Y-76100500D01*
X167291974Y-76100500D01*
X167291976Y-76100500D01*
X167492456Y-76063024D01*
X167682637Y-75989348D01*
X167856041Y-75881981D01*
X168006764Y-75744579D01*
X168078358Y-75649773D01*
X168134467Y-75608137D01*
X168177312Y-75600500D01*
X168913331Y-75600500D01*
X168913347Y-75600501D01*
X168920943Y-75600501D01*
X169079054Y-75600501D01*
X169079057Y-75600501D01*
X169231785Y-75559577D01*
X169281904Y-75530639D01*
X169368716Y-75480520D01*
X169480520Y-75368716D01*
X169480520Y-75368714D01*
X169490728Y-75358507D01*
X169490729Y-75358504D01*
X172712416Y-72136819D01*
X172773739Y-72103334D01*
X172800097Y-72100500D01*
X173822688Y-72100500D01*
X173889727Y-72120185D01*
X173921642Y-72149773D01*
X173993237Y-72244581D01*
X174130300Y-72369529D01*
X174142334Y-72380500D01*
X174143958Y-72381980D01*
X174143960Y-72381982D01*
X174221146Y-72429773D01*
X174317363Y-72489348D01*
X174507544Y-72563024D01*
X174708024Y-72600500D01*
X174708026Y-72600500D01*
X174911974Y-72600500D01*
X174911976Y-72600500D01*
X175112456Y-72563024D01*
X175302637Y-72489348D01*
X175476041Y-72381981D01*
X175609278Y-72260520D01*
X175626762Y-72244581D01*
X175626764Y-72244579D01*
X175749673Y-72081821D01*
X175760727Y-72059622D01*
X175764500Y-72052045D01*
X175812002Y-72000808D01*
X175879665Y-71983386D01*
X175946006Y-72005311D01*
X175989961Y-72059622D01*
X175999500Y-72107316D01*
X175999500Y-74392683D01*
X175979815Y-74459722D01*
X175927011Y-74505477D01*
X175857853Y-74515421D01*
X175794297Y-74486396D01*
X175764500Y-74447956D01*
X175749673Y-74418179D01*
X175735568Y-74399500D01*
X175626762Y-74255418D01*
X175476041Y-74118019D01*
X175476039Y-74118017D01*
X175302642Y-74010655D01*
X175302635Y-74010651D01*
X175207546Y-73973814D01*
X175112456Y-73936976D01*
X174911976Y-73899500D01*
X174708024Y-73899500D01*
X174507544Y-73936976D01*
X174507541Y-73936976D01*
X174507541Y-73936977D01*
X174317364Y-74010651D01*
X174317357Y-74010655D01*
X174143960Y-74118017D01*
X174143958Y-74118019D01*
X173993237Y-74255418D01*
X173870327Y-74418178D01*
X173779422Y-74600739D01*
X173779417Y-74600752D01*
X173723602Y-74796917D01*
X173704785Y-74999999D01*
X173704785Y-75000000D01*
X173723602Y-75203082D01*
X173779417Y-75399247D01*
X173779422Y-75399260D01*
X173870327Y-75581821D01*
X173993237Y-75744581D01*
X174143958Y-75881980D01*
X174143960Y-75881982D01*
X174203249Y-75918692D01*
X174317363Y-75989348D01*
X174507544Y-76063024D01*
X174708024Y-76100500D01*
X174708026Y-76100500D01*
X174911974Y-76100500D01*
X174911976Y-76100500D01*
X175112456Y-76063024D01*
X175302637Y-75989348D01*
X175476041Y-75881981D01*
X175626764Y-75744579D01*
X175749673Y-75581821D01*
X175764500Y-75552045D01*
X175812002Y-75500808D01*
X175879665Y-75483386D01*
X175946006Y-75505311D01*
X175989961Y-75559622D01*
X175999500Y-75607316D01*
X175999500Y-95875500D01*
X175979815Y-95942539D01*
X175927011Y-95988294D01*
X175875500Y-95999500D01*
X130624500Y-95999500D01*
X130557461Y-95979815D01*
X130511706Y-95927011D01*
X130500500Y-95875500D01*
X130500500Y-92506898D01*
X141199500Y-92506898D01*
X141199500Y-93493102D01*
X141205126Y-93539954D01*
X141210122Y-93581561D01*
X141265639Y-93722343D01*
X141357077Y-93842922D01*
X141477656Y-93934360D01*
X141477657Y-93934360D01*
X141477658Y-93934361D01*
X141618436Y-93989877D01*
X141706898Y-94000500D01*
X141706903Y-94000500D01*
X142693097Y-94000500D01*
X142693102Y-94000500D01*
X142781564Y-93989877D01*
X142922342Y-93934361D01*
X143042922Y-93842922D01*
X143134361Y-93722342D01*
X143189877Y-93581564D01*
X143200500Y-93493102D01*
X143200500Y-93000000D01*
X144494659Y-93000000D01*
X144513975Y-93196129D01*
X144513976Y-93196132D01*
X144541842Y-93287995D01*
X144571188Y-93384733D01*
X144664086Y-93558532D01*
X144664090Y-93558539D01*
X144789116Y-93710883D01*
X144941460Y-93835909D01*
X144941467Y-93835913D01*
X145115266Y-93928811D01*
X145115269Y-93928811D01*
X145115273Y-93928814D01*
X145303868Y-93986024D01*
X145500000Y-94005341D01*
X145696132Y-93986024D01*
X145884727Y-93928814D01*
X146058538Y-93835910D01*
X146210883Y-93710883D01*
X146236229Y-93679999D01*
X147914871Y-93679999D01*
X147914871Y-93680000D01*
X147933346Y-93879391D01*
X147933347Y-93879393D01*
X147988145Y-94071989D01*
X147988151Y-94072004D01*
X148077401Y-94251241D01*
X148077406Y-94251249D01*
X148198081Y-94411049D01*
X148300997Y-94504868D01*
X148346064Y-94545952D01*
X148516316Y-94651368D01*
X148703040Y-94723705D01*
X148899877Y-94760500D01*
X148899879Y-94760500D01*
X149100121Y-94760500D01*
X149100123Y-94760500D01*
X149296960Y-94723705D01*
X149483684Y-94651368D01*
X149653936Y-94545952D01*
X149801920Y-94411047D01*
X149922595Y-94251247D01*
X150011853Y-94071994D01*
X150066653Y-93879392D01*
X150085129Y-93680000D01*
X150076007Y-93581561D01*
X150066653Y-93480608D01*
X150066652Y-93480606D01*
X150039372Y-93384727D01*
X150011853Y-93288006D01*
X150005141Y-93274526D01*
X149922598Y-93108758D01*
X149922593Y-93108750D01*
X149801918Y-92948950D01*
X149699002Y-92855131D01*
X152919500Y-92855131D01*
X152919500Y-94504856D01*
X152919502Y-94504882D01*
X152922413Y-94529987D01*
X152922415Y-94529991D01*
X152967793Y-94632764D01*
X152967794Y-94632765D01*
X153047235Y-94712206D01*
X153150009Y-94757585D01*
X153175135Y-94760500D01*
X154824864Y-94760499D01*
X154824879Y-94760497D01*
X154824882Y-94760497D01*
X154849987Y-94757586D01*
X154849988Y-94757585D01*
X154849991Y-94757585D01*
X154952765Y-94712206D01*
X155032206Y-94632765D01*
X155077585Y-94529991D01*
X155080500Y-94504865D01*
X155080500Y-93999999D01*
X155894785Y-93999999D01*
X155894785Y-94000000D01*
X155913602Y-94203082D01*
X155969417Y-94399247D01*
X155969422Y-94399260D01*
X156060327Y-94581821D01*
X156183237Y-94744581D01*
X156333958Y-94881980D01*
X156333960Y-94881982D01*
X156433141Y-94943392D01*
X156507363Y-94989348D01*
X156697544Y-95063024D01*
X156898024Y-95100500D01*
X156898026Y-95100500D01*
X157101974Y-95100500D01*
X157101976Y-95100500D01*
X157302456Y-95063024D01*
X157492637Y-94989348D01*
X157666041Y-94881981D01*
X157794122Y-94765219D01*
X157816762Y-94744581D01*
X157816764Y-94744579D01*
X157939673Y-94581821D01*
X158030582Y-94399250D01*
X158086397Y-94203083D01*
X158105215Y-94000000D01*
X158105215Y-93999997D01*
X160695034Y-93999997D01*
X160695034Y-94000002D01*
X160714858Y-94226599D01*
X160714860Y-94226610D01*
X160773730Y-94446317D01*
X160773735Y-94446331D01*
X160869863Y-94652478D01*
X160920974Y-94725472D01*
X161600000Y-94046446D01*
X161600000Y-94052661D01*
X161627259Y-94154394D01*
X161679920Y-94245606D01*
X161754394Y-94320080D01*
X161845606Y-94372741D01*
X161947339Y-94400000D01*
X161953553Y-94400000D01*
X161274526Y-95079025D01*
X161347513Y-95130132D01*
X161347521Y-95130136D01*
X161553668Y-95226264D01*
X161553682Y-95226269D01*
X161773389Y-95285139D01*
X161773400Y-95285141D01*
X161999998Y-95304966D01*
X162000002Y-95304966D01*
X162226599Y-95285141D01*
X162226610Y-95285139D01*
X162446317Y-95226269D01*
X162446331Y-95226264D01*
X162652478Y-95130136D01*
X162725471Y-95079024D01*
X162046447Y-94400000D01*
X162052661Y-94400000D01*
X162154394Y-94372741D01*
X162245606Y-94320080D01*
X162320080Y-94245606D01*
X162372741Y-94154394D01*
X162400000Y-94052661D01*
X162400000Y-94046447D01*
X163079024Y-94725471D01*
X163130136Y-94652478D01*
X163226264Y-94446331D01*
X163226269Y-94446317D01*
X163285139Y-94226610D01*
X163285141Y-94226599D01*
X163304966Y-94000002D01*
X163304966Y-93999997D01*
X163285141Y-93773400D01*
X163285139Y-93773389D01*
X163226269Y-93553682D01*
X163226264Y-93553668D01*
X163130136Y-93347521D01*
X163130132Y-93347513D01*
X163079025Y-93274526D01*
X162400000Y-93953551D01*
X162400000Y-93947339D01*
X162372741Y-93845606D01*
X162320080Y-93754394D01*
X162245606Y-93679920D01*
X162154394Y-93627259D01*
X162052661Y-93600000D01*
X162046448Y-93600000D01*
X162725472Y-92920974D01*
X162652478Y-92869863D01*
X162446331Y-92773735D01*
X162446317Y-92773730D01*
X162226610Y-92714860D01*
X162226599Y-92714858D01*
X162000002Y-92695034D01*
X161999998Y-92695034D01*
X161773400Y-92714858D01*
X161773389Y-92714860D01*
X161553682Y-92773730D01*
X161553673Y-92773734D01*
X161347516Y-92869866D01*
X161347512Y-92869868D01*
X161274526Y-92920973D01*
X161274526Y-92920974D01*
X161953553Y-93600000D01*
X161947339Y-93600000D01*
X161845606Y-93627259D01*
X161754394Y-93679920D01*
X161679920Y-93754394D01*
X161627259Y-93845606D01*
X161600000Y-93947339D01*
X161600000Y-93953552D01*
X160920974Y-93274526D01*
X160920973Y-93274526D01*
X160869868Y-93347512D01*
X160869866Y-93347516D01*
X160773734Y-93553673D01*
X160773730Y-93553682D01*
X160714860Y-93773389D01*
X160714858Y-93773400D01*
X160695034Y-93999997D01*
X158105215Y-93999997D01*
X158086397Y-93796917D01*
X158030582Y-93600750D01*
X157939673Y-93418179D01*
X157841363Y-93287995D01*
X157816762Y-93255418D01*
X157666041Y-93118019D01*
X157666039Y-93118017D01*
X157492642Y-93010655D01*
X157492635Y-93010651D01*
X157333372Y-92948953D01*
X157302456Y-92936976D01*
X157101976Y-92899500D01*
X156898024Y-92899500D01*
X156697544Y-92936976D01*
X156697541Y-92936976D01*
X156697541Y-92936977D01*
X156507364Y-93010651D01*
X156507357Y-93010655D01*
X156333960Y-93118017D01*
X156333958Y-93118019D01*
X156183237Y-93255418D01*
X156060327Y-93418178D01*
X155969422Y-93600739D01*
X155969417Y-93600752D01*
X155913602Y-93796917D01*
X155894785Y-93999999D01*
X155080500Y-93999999D01*
X155080499Y-92855136D01*
X155080497Y-92855117D01*
X155077586Y-92830012D01*
X155077585Y-92830010D01*
X155077585Y-92830009D01*
X155032206Y-92727235D01*
X154952765Y-92647794D01*
X154952763Y-92647793D01*
X154849992Y-92602415D01*
X154824865Y-92599500D01*
X153175143Y-92599500D01*
X153175117Y-92599502D01*
X153150012Y-92602413D01*
X153150008Y-92602415D01*
X153047235Y-92647793D01*
X152967794Y-92727234D01*
X152922415Y-92830006D01*
X152922415Y-92830008D01*
X152919500Y-92855131D01*
X149699002Y-92855131D01*
X149653937Y-92814049D01*
X149653936Y-92814048D01*
X149513729Y-92727235D01*
X149483685Y-92708632D01*
X149483683Y-92708631D01*
X149326640Y-92647793D01*
X149296960Y-92636295D01*
X149100123Y-92599500D01*
X148899877Y-92599500D01*
X148703040Y-92636295D01*
X148703037Y-92636295D01*
X148703037Y-92636296D01*
X148516316Y-92708631D01*
X148516314Y-92708632D01*
X148346062Y-92814049D01*
X148198081Y-92948950D01*
X148077406Y-93108750D01*
X148077401Y-93108758D01*
X147988151Y-93287995D01*
X147988145Y-93288010D01*
X147933347Y-93480606D01*
X147933346Y-93480608D01*
X147914871Y-93679999D01*
X146236229Y-93679999D01*
X146335910Y-93558538D01*
X146428814Y-93384727D01*
X146486024Y-93196132D01*
X146505341Y-93000000D01*
X146486024Y-92803868D01*
X146428814Y-92615273D01*
X146428811Y-92615269D01*
X146428811Y-92615266D01*
X146335913Y-92441467D01*
X146335909Y-92441460D01*
X146210883Y-92289116D01*
X146058539Y-92164090D01*
X146058532Y-92164086D01*
X145884733Y-92071188D01*
X145884727Y-92071186D01*
X145696132Y-92013976D01*
X145696129Y-92013975D01*
X145500000Y-91994659D01*
X145303870Y-92013975D01*
X145115266Y-92071188D01*
X144941467Y-92164086D01*
X144941460Y-92164090D01*
X144789116Y-92289116D01*
X144664090Y-92441460D01*
X144664086Y-92441467D01*
X144571188Y-92615266D01*
X144513975Y-92803870D01*
X144494659Y-93000000D01*
X143200500Y-93000000D01*
X143200500Y-92506898D01*
X143189877Y-92418436D01*
X143134361Y-92277658D01*
X143134360Y-92277657D01*
X143134360Y-92277656D01*
X143042922Y-92157077D01*
X142922343Y-92065639D01*
X142781561Y-92010122D01*
X142735926Y-92004642D01*
X142693102Y-91999500D01*
X141706898Y-91999500D01*
X141667853Y-92004188D01*
X141618438Y-92010122D01*
X141477656Y-92065639D01*
X141357077Y-92157077D01*
X141265639Y-92277656D01*
X141210122Y-92418438D01*
X141207358Y-92441460D01*
X141199500Y-92506898D01*
X130500500Y-92506898D01*
X130500500Y-90500000D01*
X141194659Y-90500000D01*
X141213975Y-90696129D01*
X141271188Y-90884733D01*
X141364086Y-91058532D01*
X141364090Y-91058539D01*
X141489116Y-91210883D01*
X141641460Y-91335909D01*
X141641467Y-91335913D01*
X141815266Y-91428811D01*
X141815269Y-91428811D01*
X141815273Y-91428814D01*
X142003868Y-91486024D01*
X142200000Y-91505341D01*
X142396132Y-91486024D01*
X142584727Y-91428814D01*
X142758538Y-91335910D01*
X142910883Y-91210883D01*
X143035910Y-91058538D01*
X143128814Y-90884727D01*
X143186024Y-90696132D01*
X143205341Y-90500000D01*
X144494659Y-90500000D01*
X144513975Y-90696129D01*
X144571188Y-90884733D01*
X144664086Y-91058532D01*
X144664090Y-91058539D01*
X144789116Y-91210883D01*
X144941460Y-91335909D01*
X144941467Y-91335913D01*
X145115266Y-91428811D01*
X145115269Y-91428811D01*
X145115273Y-91428814D01*
X145303868Y-91486024D01*
X145500000Y-91505341D01*
X145696132Y-91486024D01*
X145884727Y-91428814D01*
X146058538Y-91335910D01*
X146210883Y-91210883D01*
X146335910Y-91058538D01*
X146428814Y-90884727D01*
X146454516Y-90799999D01*
X155894785Y-90799999D01*
X155894785Y-90800000D01*
X155913602Y-91003082D01*
X155969417Y-91199247D01*
X155969422Y-91199260D01*
X156060327Y-91381821D01*
X156183237Y-91544581D01*
X156333958Y-91681980D01*
X156333960Y-91681982D01*
X156374967Y-91707372D01*
X156507363Y-91789348D01*
X156697544Y-91863024D01*
X156898024Y-91900500D01*
X156898026Y-91900500D01*
X157101974Y-91900500D01*
X157101976Y-91900500D01*
X157302456Y-91863024D01*
X157492637Y-91789348D01*
X157666041Y-91681981D01*
X157816764Y-91544579D01*
X157888358Y-91449773D01*
X157944467Y-91408137D01*
X157987312Y-91400500D01*
X159113331Y-91400500D01*
X159113347Y-91400501D01*
X159120943Y-91400501D01*
X159279054Y-91400501D01*
X159279057Y-91400501D01*
X159431785Y-91359577D01*
X159481904Y-91330639D01*
X159568716Y-91280520D01*
X159680520Y-91168716D01*
X159680520Y-91168714D01*
X159690728Y-91158507D01*
X159690730Y-91158504D01*
X160897079Y-89952155D01*
X163320000Y-89952155D01*
X163320000Y-90550000D01*
X164304314Y-90550000D01*
X164299920Y-90554394D01*
X164247259Y-90645606D01*
X164220000Y-90747339D01*
X164220000Y-90852661D01*
X164247259Y-90954394D01*
X164299920Y-91045606D01*
X164304314Y-91050000D01*
X163320000Y-91050000D01*
X163320000Y-91647844D01*
X163326401Y-91707372D01*
X163326403Y-91707379D01*
X163376645Y-91842086D01*
X163376649Y-91842093D01*
X163462809Y-91957187D01*
X163462812Y-91957190D01*
X163577906Y-92043350D01*
X163577913Y-92043354D01*
X163712620Y-92093596D01*
X163712627Y-92093598D01*
X163772155Y-92099999D01*
X163772172Y-92100000D01*
X164370000Y-92100000D01*
X164370000Y-91115686D01*
X164374394Y-91120080D01*
X164465606Y-91172741D01*
X164567339Y-91200000D01*
X164672661Y-91200000D01*
X164774394Y-91172741D01*
X164865606Y-91120080D01*
X164870000Y-91115686D01*
X164870000Y-92100000D01*
X165467828Y-92100000D01*
X165467844Y-92099999D01*
X165527372Y-92093598D01*
X165527379Y-92093596D01*
X165662086Y-92043354D01*
X165662093Y-92043350D01*
X165777187Y-91957190D01*
X165777190Y-91957187D01*
X165863350Y-91842093D01*
X165863354Y-91842086D01*
X165913596Y-91707379D01*
X165913598Y-91707372D01*
X165919999Y-91647844D01*
X165920000Y-91647827D01*
X165920000Y-91050000D01*
X164935686Y-91050000D01*
X164940080Y-91045606D01*
X164992741Y-90954394D01*
X165020000Y-90852661D01*
X165020000Y-90747339D01*
X164992741Y-90645606D01*
X164940080Y-90554394D01*
X164935686Y-90550000D01*
X165920000Y-90550000D01*
X165920000Y-89952172D01*
X165919999Y-89952155D01*
X165913598Y-89892627D01*
X165913596Y-89892620D01*
X165863354Y-89757913D01*
X165863350Y-89757906D01*
X165777190Y-89642812D01*
X165777187Y-89642809D01*
X165662093Y-89556649D01*
X165662086Y-89556645D01*
X165527379Y-89506403D01*
X165527372Y-89506401D01*
X165467844Y-89500000D01*
X165128971Y-89500000D01*
X165061932Y-89480315D01*
X165016177Y-89427511D01*
X165006233Y-89358353D01*
X165035258Y-89294797D01*
X165084175Y-89260373D01*
X165112637Y-89249348D01*
X165286041Y-89141981D01*
X165436764Y-89004579D01*
X165559673Y-88841821D01*
X165650582Y-88659250D01*
X165706397Y-88463083D01*
X165725215Y-88260000D01*
X165724288Y-88250000D01*
X165706397Y-88056917D01*
X165650582Y-87860750D01*
X165627327Y-87814048D01*
X165576668Y-87712310D01*
X165559673Y-87678179D01*
X165472192Y-87562335D01*
X165436762Y-87515418D01*
X165286041Y-87378019D01*
X165286039Y-87378017D01*
X165112642Y-87270655D01*
X165112635Y-87270651D01*
X165017546Y-87233814D01*
X164922456Y-87196976D01*
X164721976Y-87159500D01*
X164518024Y-87159500D01*
X164317544Y-87196976D01*
X164317541Y-87196976D01*
X164317541Y-87196977D01*
X164127364Y-87270651D01*
X164127357Y-87270655D01*
X163953960Y-87378017D01*
X163953958Y-87378019D01*
X163803237Y-87515418D01*
X163680327Y-87678178D01*
X163589422Y-87860739D01*
X163589417Y-87860752D01*
X163533602Y-88056917D01*
X163514785Y-88259998D01*
X163533602Y-88463082D01*
X163589417Y-88659247D01*
X163589422Y-88659260D01*
X163680327Y-88841821D01*
X163803237Y-89004581D01*
X163953958Y-89141980D01*
X163953960Y-89141982D01*
X164053141Y-89203392D01*
X164127363Y-89249348D01*
X164155824Y-89260373D01*
X164211224Y-89302946D01*
X164234815Y-89368713D01*
X164219104Y-89436793D01*
X164169080Y-89485572D01*
X164111029Y-89500000D01*
X163772155Y-89500000D01*
X163712627Y-89506401D01*
X163712620Y-89506403D01*
X163577913Y-89556645D01*
X163577906Y-89556649D01*
X163462812Y-89642809D01*
X163462809Y-89642812D01*
X163376649Y-89757906D01*
X163376645Y-89757913D01*
X163326403Y-89892620D01*
X163326401Y-89892627D01*
X163320000Y-89952155D01*
X160897079Y-89952155D01*
X162358506Y-88490728D01*
X162358511Y-88490724D01*
X162368714Y-88480520D01*
X162368716Y-88480520D01*
X162480520Y-88368716D01*
X162543287Y-88260000D01*
X162559577Y-88231785D01*
X162600501Y-88079057D01*
X162600501Y-87920943D01*
X162600501Y-87913348D01*
X162600500Y-87913330D01*
X162600500Y-85719999D01*
X163514785Y-85719999D01*
X163514785Y-85720000D01*
X163533602Y-85923082D01*
X163589417Y-86119247D01*
X163589422Y-86119260D01*
X163680327Y-86301821D01*
X163803237Y-86464581D01*
X163953958Y-86601980D01*
X163953960Y-86601982D01*
X164053141Y-86663392D01*
X164127363Y-86709348D01*
X164317544Y-86783024D01*
X164518024Y-86820500D01*
X164518026Y-86820500D01*
X164721974Y-86820500D01*
X164721976Y-86820500D01*
X164922456Y-86783024D01*
X165112637Y-86709348D01*
X165280954Y-86605131D01*
X167269500Y-86605131D01*
X167269500Y-88394856D01*
X167269502Y-88394882D01*
X167272413Y-88419987D01*
X167272415Y-88419991D01*
X167317793Y-88522764D01*
X167317794Y-88522765D01*
X167397235Y-88602206D01*
X167500009Y-88647585D01*
X167525135Y-88650500D01*
X169314864Y-88650499D01*
X169314879Y-88650497D01*
X169314882Y-88650497D01*
X169339987Y-88647586D01*
X169339988Y-88647585D01*
X169339991Y-88647585D01*
X169442765Y-88602206D01*
X169522206Y-88522765D01*
X169567585Y-88419991D01*
X169570500Y-88394865D01*
X169570499Y-87656046D01*
X169590183Y-87589009D01*
X169642987Y-87543254D01*
X169712146Y-87533310D01*
X169775702Y-87562335D01*
X169813476Y-87621113D01*
X169817970Y-87644606D01*
X169821081Y-87678178D01*
X169824244Y-87712310D01*
X169877675Y-87900099D01*
X169882596Y-87917392D01*
X169882596Y-87917394D01*
X169977632Y-88108253D01*
X170106127Y-88278406D01*
X170106128Y-88278407D01*
X170263698Y-88422052D01*
X170444981Y-88534298D01*
X170643802Y-88611321D01*
X170853390Y-88650500D01*
X170853392Y-88650500D01*
X171066608Y-88650500D01*
X171066610Y-88650500D01*
X171276198Y-88611321D01*
X171475019Y-88534298D01*
X171656302Y-88422052D01*
X171813872Y-88278407D01*
X171942366Y-88108255D01*
X172009325Y-87973781D01*
X172056825Y-87922548D01*
X172124488Y-87905126D01*
X172190828Y-87927051D01*
X172232705Y-87976651D01*
X172326399Y-88177578D01*
X172461894Y-88371082D01*
X172628917Y-88538105D01*
X172822421Y-88673600D01*
X173036507Y-88773429D01*
X173036516Y-88773433D01*
X173250000Y-88830634D01*
X173250000Y-87933012D01*
X173307007Y-87965925D01*
X173434174Y-88000000D01*
X173565826Y-88000000D01*
X173692993Y-87965925D01*
X173750000Y-87933012D01*
X173750000Y-88830633D01*
X173963483Y-88773433D01*
X173963492Y-88773429D01*
X174177578Y-88673600D01*
X174371082Y-88538105D01*
X174538105Y-88371082D01*
X174673600Y-88177578D01*
X174773429Y-87963492D01*
X174773432Y-87963486D01*
X174830636Y-87750000D01*
X173933012Y-87750000D01*
X173965925Y-87692993D01*
X174000000Y-87565826D01*
X174000000Y-87434174D01*
X173965925Y-87307007D01*
X173933012Y-87250000D01*
X174830636Y-87250000D01*
X174830635Y-87249999D01*
X174773432Y-87036513D01*
X174773429Y-87036507D01*
X174673600Y-86822422D01*
X174673599Y-86822420D01*
X174538113Y-86628926D01*
X174538108Y-86628920D01*
X174371082Y-86461894D01*
X174177578Y-86326399D01*
X173963492Y-86226570D01*
X173963486Y-86226567D01*
X173750000Y-86169364D01*
X173750000Y-87066988D01*
X173692993Y-87034075D01*
X173565826Y-87000000D01*
X173434174Y-87000000D01*
X173307007Y-87034075D01*
X173250000Y-87066988D01*
X173250000Y-86169364D01*
X173249999Y-86169364D01*
X173036513Y-86226567D01*
X173036507Y-86226570D01*
X172822422Y-86326399D01*
X172822420Y-86326400D01*
X172628926Y-86461886D01*
X172628920Y-86461891D01*
X172461891Y-86628920D01*
X172461886Y-86628926D01*
X172326400Y-86822420D01*
X172326399Y-86822422D01*
X172232705Y-87023348D01*
X172186532Y-87075787D01*
X172119339Y-87094939D01*
X172052457Y-87074723D01*
X172009324Y-87026216D01*
X171942366Y-86891745D01*
X171913524Y-86853553D01*
X171813872Y-86721593D01*
X171778775Y-86689598D01*
X171656302Y-86577948D01*
X171475019Y-86465702D01*
X171475017Y-86465701D01*
X171375608Y-86427190D01*
X171276198Y-86388679D01*
X171066610Y-86349500D01*
X170853390Y-86349500D01*
X170643802Y-86388679D01*
X170643799Y-86388679D01*
X170643799Y-86388680D01*
X170444982Y-86465701D01*
X170444980Y-86465702D01*
X170263699Y-86577947D01*
X170106127Y-86721593D01*
X169977632Y-86891746D01*
X169882596Y-87082605D01*
X169882596Y-87082607D01*
X169824244Y-87287689D01*
X169817970Y-87355394D01*
X169792183Y-87420331D01*
X169735383Y-87461018D01*
X169665602Y-87464538D01*
X169604995Y-87429772D01*
X169572806Y-87367759D01*
X169570499Y-87343952D01*
X169570499Y-86605143D01*
X169570499Y-86605136D01*
X169568743Y-86589991D01*
X169567586Y-86580012D01*
X169567585Y-86580010D01*
X169567585Y-86580009D01*
X169522206Y-86477235D01*
X169442765Y-86397794D01*
X169422124Y-86388680D01*
X169339992Y-86352415D01*
X169314865Y-86349500D01*
X167525143Y-86349500D01*
X167525117Y-86349502D01*
X167500012Y-86352413D01*
X167500008Y-86352415D01*
X167397235Y-86397793D01*
X167317794Y-86477234D01*
X167272415Y-86580006D01*
X167272415Y-86580008D01*
X167269500Y-86605131D01*
X165280954Y-86605131D01*
X165286041Y-86601981D01*
X165436764Y-86464579D01*
X165559673Y-86301821D01*
X165650582Y-86119250D01*
X165706397Y-85923083D01*
X165725215Y-85720000D01*
X165706397Y-85516917D01*
X165650582Y-85320750D01*
X165559673Y-85138179D01*
X165462084Y-85008950D01*
X165436762Y-84975418D01*
X165286041Y-84838019D01*
X165286039Y-84838017D01*
X165112642Y-84730655D01*
X165112635Y-84730651D01*
X165017546Y-84693814D01*
X164922456Y-84656976D01*
X164721976Y-84619500D01*
X164518024Y-84619500D01*
X164317544Y-84656976D01*
X164317541Y-84656976D01*
X164317541Y-84656977D01*
X164127364Y-84730651D01*
X164127357Y-84730655D01*
X163953960Y-84838017D01*
X163953958Y-84838019D01*
X163803237Y-84975418D01*
X163680327Y-85138178D01*
X163589422Y-85320739D01*
X163589417Y-85320752D01*
X163533602Y-85516917D01*
X163514785Y-85719999D01*
X162600500Y-85719999D01*
X162600500Y-84300097D01*
X162620185Y-84233058D01*
X162636819Y-84212416D01*
X163032416Y-83816819D01*
X163093739Y-83783334D01*
X163120097Y-83780500D01*
X163632688Y-83780500D01*
X163699727Y-83800185D01*
X163731642Y-83829773D01*
X163803237Y-83924581D01*
X163953958Y-84061980D01*
X163953960Y-84061982D01*
X164016169Y-84100500D01*
X164127363Y-84169348D01*
X164317544Y-84243024D01*
X164518024Y-84280500D01*
X164518026Y-84280500D01*
X164721974Y-84280500D01*
X164721976Y-84280500D01*
X164922456Y-84243024D01*
X165112637Y-84169348D01*
X165286041Y-84061981D01*
X165436764Y-83924579D01*
X165559673Y-83761821D01*
X165650582Y-83579250D01*
X165706397Y-83383083D01*
X165725215Y-83180000D01*
X165706397Y-82976917D01*
X165650582Y-82780750D01*
X165559673Y-82598179D01*
X165436764Y-82435421D01*
X165436762Y-82435418D01*
X165286041Y-82298019D01*
X165286039Y-82298017D01*
X165112642Y-82190655D01*
X165112635Y-82190651D01*
X164956426Y-82130136D01*
X164922456Y-82116976D01*
X164721976Y-82079500D01*
X164518024Y-82079500D01*
X164317544Y-82116976D01*
X164317541Y-82116976D01*
X164317541Y-82116977D01*
X164127364Y-82190651D01*
X164127357Y-82190655D01*
X163953960Y-82298017D01*
X163953958Y-82298019D01*
X163803237Y-82435418D01*
X163731642Y-82530227D01*
X163675533Y-82571863D01*
X163632688Y-82579500D01*
X162899057Y-82579500D01*
X162740943Y-82579500D01*
X162588215Y-82620423D01*
X162561433Y-82635886D01*
X162506358Y-82667683D01*
X162451285Y-82699479D01*
X162451282Y-82699481D01*
X161519481Y-83631282D01*
X161519479Y-83631285D01*
X161469361Y-83718094D01*
X161469359Y-83718096D01*
X161440425Y-83768209D01*
X161440424Y-83768210D01*
X161427399Y-83816819D01*
X161399499Y-83920943D01*
X161399499Y-83920945D01*
X161399499Y-84089046D01*
X161399500Y-84089059D01*
X161399500Y-87699903D01*
X161379815Y-87766942D01*
X161363181Y-87787584D01*
X158987584Y-90163181D01*
X158926261Y-90196666D01*
X158899903Y-90199500D01*
X157987312Y-90199500D01*
X157920273Y-90179815D01*
X157888358Y-90150227D01*
X157816762Y-90055418D01*
X157666041Y-89918019D01*
X157666039Y-89918017D01*
X157492642Y-89810655D01*
X157492635Y-89810651D01*
X157356483Y-89757906D01*
X157302456Y-89736976D01*
X157101976Y-89699500D01*
X156898024Y-89699500D01*
X156697544Y-89736976D01*
X156697541Y-89736976D01*
X156697541Y-89736977D01*
X156507364Y-89810651D01*
X156507357Y-89810655D01*
X156333960Y-89918017D01*
X156333958Y-89918019D01*
X156183237Y-90055418D01*
X156060327Y-90218178D01*
X155969422Y-90400739D01*
X155969417Y-90400752D01*
X155913602Y-90596917D01*
X155894785Y-90799999D01*
X146454516Y-90799999D01*
X146486024Y-90696132D01*
X146505341Y-90500000D01*
X146486024Y-90303868D01*
X146428814Y-90115273D01*
X146428811Y-90115269D01*
X146428811Y-90115266D01*
X146335913Y-89941467D01*
X146335909Y-89941460D01*
X146210883Y-89789116D01*
X146058539Y-89664090D01*
X146058532Y-89664086D01*
X145884733Y-89571188D01*
X145884727Y-89571186D01*
X145696132Y-89513976D01*
X145696129Y-89513975D01*
X145500000Y-89494659D01*
X145303870Y-89513975D01*
X145115266Y-89571188D01*
X144941467Y-89664086D01*
X144941460Y-89664090D01*
X144789116Y-89789116D01*
X144664090Y-89941460D01*
X144664086Y-89941467D01*
X144571188Y-90115266D01*
X144513975Y-90303870D01*
X144494659Y-90500000D01*
X143205341Y-90500000D01*
X143186024Y-90303868D01*
X143128814Y-90115273D01*
X143128811Y-90115269D01*
X143128811Y-90115266D01*
X143035913Y-89941467D01*
X143035909Y-89941460D01*
X142910883Y-89789116D01*
X142758539Y-89664090D01*
X142758532Y-89664086D01*
X142584733Y-89571188D01*
X142584727Y-89571186D01*
X142396132Y-89513976D01*
X142396129Y-89513975D01*
X142200000Y-89494659D01*
X142003870Y-89513975D01*
X141815266Y-89571188D01*
X141641467Y-89664086D01*
X141641460Y-89664090D01*
X141489116Y-89789116D01*
X141364090Y-89941460D01*
X141364086Y-89941467D01*
X141271188Y-90115266D01*
X141213975Y-90303870D01*
X141194659Y-90500000D01*
X130500500Y-90500000D01*
X130500500Y-86499995D01*
X132745093Y-86499995D01*
X132745093Y-86500004D01*
X132764692Y-86761545D01*
X132764693Y-86761550D01*
X132823058Y-87017270D01*
X132918883Y-87261426D01*
X132918882Y-87261426D01*
X133050027Y-87488573D01*
X133097874Y-87548571D01*
X133898958Y-86747488D01*
X133923978Y-86807890D01*
X133995112Y-86914351D01*
X134085649Y-87004888D01*
X134192110Y-87076022D01*
X134252510Y-87101041D01*
X133450830Y-87902720D01*
X133622546Y-88019793D01*
X133622550Y-88019795D01*
X133858854Y-88133594D01*
X133858858Y-88133595D01*
X134109494Y-88210907D01*
X134109500Y-88210909D01*
X134368848Y-88249999D01*
X134368857Y-88250000D01*
X134631143Y-88250000D01*
X134631151Y-88249999D01*
X134890499Y-88210909D01*
X134890505Y-88210907D01*
X135141143Y-88133595D01*
X135377445Y-88019798D01*
X135377447Y-88019797D01*
X135406484Y-88000000D01*
X141194659Y-88000000D01*
X141213975Y-88196129D01*
X141213976Y-88196132D01*
X141266329Y-88368717D01*
X141271188Y-88384733D01*
X141364086Y-88558532D01*
X141364090Y-88558539D01*
X141489116Y-88710883D01*
X141641460Y-88835909D01*
X141641467Y-88835913D01*
X141815266Y-88928811D01*
X141815269Y-88928811D01*
X141815273Y-88928814D01*
X142003868Y-88986024D01*
X142200000Y-89005341D01*
X142396132Y-88986024D01*
X142584727Y-88928814D01*
X142758538Y-88835910D01*
X142910883Y-88710883D01*
X143035910Y-88558538D01*
X143128814Y-88384727D01*
X143186024Y-88196132D01*
X143205341Y-88000000D01*
X144494659Y-88000000D01*
X144513975Y-88196129D01*
X144513976Y-88196132D01*
X144566329Y-88368717D01*
X144571188Y-88384733D01*
X144664086Y-88558532D01*
X144664090Y-88558539D01*
X144789116Y-88710883D01*
X144941460Y-88835909D01*
X144941467Y-88835913D01*
X145115266Y-88928811D01*
X145115269Y-88928811D01*
X145115273Y-88928814D01*
X145303868Y-88986024D01*
X145500000Y-89005341D01*
X145696132Y-88986024D01*
X145884727Y-88928814D01*
X146058538Y-88835910D01*
X146210883Y-88710883D01*
X146236229Y-88679999D01*
X150414871Y-88679999D01*
X150414871Y-88680000D01*
X150433346Y-88879391D01*
X150433347Y-88879393D01*
X150488145Y-89071989D01*
X150488151Y-89072004D01*
X150577401Y-89251241D01*
X150577406Y-89251249D01*
X150698081Y-89411049D01*
X150802681Y-89506403D01*
X150846064Y-89545952D01*
X150975734Y-89626240D01*
X151002497Y-89642812D01*
X151016316Y-89651368D01*
X151203040Y-89723705D01*
X151399877Y-89760500D01*
X151399879Y-89760500D01*
X151600121Y-89760500D01*
X151600123Y-89760500D01*
X151796960Y-89723705D01*
X151983684Y-89651368D01*
X152153936Y-89545952D01*
X152301920Y-89411047D01*
X152422595Y-89251247D01*
X152511853Y-89071994D01*
X152566653Y-88879392D01*
X152585129Y-88680000D01*
X152582395Y-88650500D01*
X152566653Y-88480608D01*
X152566652Y-88480606D01*
X152561666Y-88463083D01*
X152511853Y-88288006D01*
X152511848Y-88287995D01*
X152497907Y-88259998D01*
X155894785Y-88259998D01*
X155913602Y-88463082D01*
X155969417Y-88659247D01*
X155969422Y-88659260D01*
X156060327Y-88841821D01*
X156183237Y-89004581D01*
X156333958Y-89141980D01*
X156333960Y-89141982D01*
X156433141Y-89203392D01*
X156507363Y-89249348D01*
X156697544Y-89323024D01*
X156898024Y-89360500D01*
X156898026Y-89360500D01*
X157101974Y-89360500D01*
X157101976Y-89360500D01*
X157302456Y-89323024D01*
X157492637Y-89249348D01*
X157666041Y-89141981D01*
X157816764Y-89004579D01*
X157939673Y-88841821D01*
X158030582Y-88659250D01*
X158086397Y-88463083D01*
X158105215Y-88260000D01*
X158104288Y-88250000D01*
X158086397Y-88056917D01*
X158030582Y-87860750D01*
X158007327Y-87814048D01*
X157956668Y-87712310D01*
X157939673Y-87678179D01*
X157852192Y-87562335D01*
X157816762Y-87515418D01*
X157666041Y-87378019D01*
X157666039Y-87378017D01*
X157492642Y-87270655D01*
X157492635Y-87270651D01*
X157397546Y-87233814D01*
X157302456Y-87196976D01*
X157101976Y-87159500D01*
X156898024Y-87159500D01*
X156697544Y-87196976D01*
X156697541Y-87196976D01*
X156697541Y-87196977D01*
X156507364Y-87270651D01*
X156507357Y-87270655D01*
X156333960Y-87378017D01*
X156333958Y-87378019D01*
X156183237Y-87515418D01*
X156060327Y-87678178D01*
X155969422Y-87860739D01*
X155969417Y-87860752D01*
X155913602Y-88056917D01*
X155894785Y-88259998D01*
X152497907Y-88259998D01*
X152422598Y-88108758D01*
X152422593Y-88108750D01*
X152301918Y-87948950D01*
X152153937Y-87814049D01*
X152153936Y-87814048D01*
X152077858Y-87766942D01*
X151983685Y-87708632D01*
X151983683Y-87708631D01*
X151818413Y-87644606D01*
X151796960Y-87636295D01*
X151600123Y-87599500D01*
X151399877Y-87599500D01*
X151203040Y-87636295D01*
X151203037Y-87636295D01*
X151203037Y-87636296D01*
X151016316Y-87708631D01*
X151016314Y-87708632D01*
X150846062Y-87814049D01*
X150698081Y-87948950D01*
X150577406Y-88108750D01*
X150577401Y-88108758D01*
X150488151Y-88287995D01*
X150488145Y-88288010D01*
X150433347Y-88480606D01*
X150433346Y-88480608D01*
X150414871Y-88679999D01*
X146236229Y-88679999D01*
X146335910Y-88558538D01*
X146428814Y-88384727D01*
X146486024Y-88196132D01*
X146505341Y-88000000D01*
X146486024Y-87803868D01*
X146428814Y-87615273D01*
X146428811Y-87615269D01*
X146428811Y-87615266D01*
X146335913Y-87441467D01*
X146335909Y-87441460D01*
X146210883Y-87289116D01*
X146058539Y-87164090D01*
X146058532Y-87164086D01*
X145884733Y-87071188D01*
X145884727Y-87071186D01*
X145696132Y-87013976D01*
X145696129Y-87013975D01*
X145500000Y-86994659D01*
X145303870Y-87013975D01*
X145115266Y-87071188D01*
X144941467Y-87164086D01*
X144941460Y-87164090D01*
X144789116Y-87289116D01*
X144664090Y-87441460D01*
X144664086Y-87441467D01*
X144571188Y-87615266D01*
X144513975Y-87803870D01*
X144494659Y-88000000D01*
X143205341Y-88000000D01*
X143186024Y-87803868D01*
X143128814Y-87615273D01*
X143128811Y-87615269D01*
X143128811Y-87615266D01*
X143035913Y-87441467D01*
X143035909Y-87441460D01*
X142910883Y-87289116D01*
X142758539Y-87164090D01*
X142758532Y-87164086D01*
X142584733Y-87071188D01*
X142584727Y-87071186D01*
X142396132Y-87013976D01*
X142396129Y-87013975D01*
X142200000Y-86994659D01*
X142003870Y-87013975D01*
X141815266Y-87071188D01*
X141641467Y-87164086D01*
X141641460Y-87164090D01*
X141489116Y-87289116D01*
X141364090Y-87441460D01*
X141364086Y-87441467D01*
X141271188Y-87615266D01*
X141213975Y-87803870D01*
X141194659Y-88000000D01*
X135406484Y-88000000D01*
X135549168Y-87902720D01*
X134747488Y-87101041D01*
X134807890Y-87076022D01*
X134914351Y-87004888D01*
X135004888Y-86914351D01*
X135076022Y-86807890D01*
X135101041Y-86747488D01*
X135902125Y-87548572D01*
X135949971Y-87488573D01*
X136081116Y-87261426D01*
X136176941Y-87017270D01*
X136235306Y-86761550D01*
X136235307Y-86761545D01*
X136254907Y-86500004D01*
X136254907Y-86499995D01*
X136235307Y-86238454D01*
X136235306Y-86238449D01*
X136176941Y-85982729D01*
X136081676Y-85739999D01*
X147914871Y-85739999D01*
X147914871Y-85740000D01*
X147933346Y-85939391D01*
X147933347Y-85939393D01*
X147988145Y-86131989D01*
X147988151Y-86132004D01*
X148077401Y-86311241D01*
X148077406Y-86311249D01*
X148198081Y-86471049D01*
X148317605Y-86580008D01*
X148346064Y-86605952D01*
X148475734Y-86686240D01*
X148513053Y-86709348D01*
X148516316Y-86711368D01*
X148703040Y-86783705D01*
X148899877Y-86820500D01*
X148899879Y-86820500D01*
X149100121Y-86820500D01*
X149100123Y-86820500D01*
X149296960Y-86783705D01*
X149483684Y-86711368D01*
X149653936Y-86605952D01*
X149801920Y-86471047D01*
X149922595Y-86311247D01*
X150011853Y-86131994D01*
X150066653Y-85939392D01*
X150085129Y-85740000D01*
X150066653Y-85540608D01*
X150011853Y-85348006D01*
X150011848Y-85347995D01*
X149922598Y-85168758D01*
X149922593Y-85168750D01*
X149801918Y-85008950D01*
X149699002Y-84915131D01*
X152919500Y-84915131D01*
X152919500Y-86564856D01*
X152919502Y-86564882D01*
X152922413Y-86589987D01*
X152922415Y-86589991D01*
X152967793Y-86692764D01*
X152967794Y-86692765D01*
X153047235Y-86772206D01*
X153150009Y-86817585D01*
X153175135Y-86820500D01*
X154824864Y-86820499D01*
X154824879Y-86820497D01*
X154824882Y-86820497D01*
X154849987Y-86817586D01*
X154849988Y-86817585D01*
X154849991Y-86817585D01*
X154952765Y-86772206D01*
X155032206Y-86692765D01*
X155077585Y-86589991D01*
X155080500Y-86564865D01*
X155080499Y-85719999D01*
X155894785Y-85719999D01*
X155894785Y-85720000D01*
X155913602Y-85923082D01*
X155969417Y-86119247D01*
X155969422Y-86119260D01*
X156060327Y-86301821D01*
X156183237Y-86464581D01*
X156333958Y-86601980D01*
X156333960Y-86601982D01*
X156433141Y-86663392D01*
X156507363Y-86709348D01*
X156697544Y-86783024D01*
X156898024Y-86820500D01*
X156898026Y-86820500D01*
X157101974Y-86820500D01*
X157101976Y-86820500D01*
X157302456Y-86783024D01*
X157492637Y-86709348D01*
X157666041Y-86601981D01*
X157816764Y-86464579D01*
X157939673Y-86301821D01*
X158030582Y-86119250D01*
X158086397Y-85923083D01*
X158105215Y-85720000D01*
X158086397Y-85516917D01*
X158030582Y-85320750D01*
X157939673Y-85138179D01*
X157842084Y-85008950D01*
X157816762Y-84975418D01*
X157666041Y-84838019D01*
X157666039Y-84838017D01*
X157492642Y-84730655D01*
X157492635Y-84730651D01*
X157397546Y-84693814D01*
X157302456Y-84656976D01*
X157101976Y-84619500D01*
X156898024Y-84619500D01*
X156697544Y-84656976D01*
X156697541Y-84656976D01*
X156697541Y-84656977D01*
X156507364Y-84730651D01*
X156507357Y-84730655D01*
X156333960Y-84838017D01*
X156333958Y-84838019D01*
X156183237Y-84975418D01*
X156060327Y-85138178D01*
X155969422Y-85320739D01*
X155969417Y-85320752D01*
X155913602Y-85516917D01*
X155894785Y-85719999D01*
X155080499Y-85719999D01*
X155080499Y-84915136D01*
X155080497Y-84915117D01*
X155077586Y-84890012D01*
X155077585Y-84890010D01*
X155077585Y-84890009D01*
X155032206Y-84787235D01*
X154952765Y-84707794D01*
X154952763Y-84707793D01*
X154849992Y-84662415D01*
X154824865Y-84659500D01*
X153175143Y-84659500D01*
X153175117Y-84659502D01*
X153150012Y-84662413D01*
X153150008Y-84662415D01*
X153047235Y-84707793D01*
X152967794Y-84787234D01*
X152922415Y-84890006D01*
X152922415Y-84890008D01*
X152919500Y-84915131D01*
X149699002Y-84915131D01*
X149653937Y-84874049D01*
X149653936Y-84874048D01*
X149589101Y-84833903D01*
X149483685Y-84768632D01*
X149483683Y-84768631D01*
X149326640Y-84707793D01*
X149296960Y-84696295D01*
X149100123Y-84659500D01*
X148899877Y-84659500D01*
X148703040Y-84696295D01*
X148703037Y-84696295D01*
X148703037Y-84696296D01*
X148516316Y-84768631D01*
X148516314Y-84768632D01*
X148346062Y-84874049D01*
X148198081Y-85008950D01*
X148077406Y-85168750D01*
X148077401Y-85168758D01*
X147988151Y-85347995D01*
X147988145Y-85348010D01*
X147933347Y-85540606D01*
X147933346Y-85540608D01*
X147914871Y-85739999D01*
X136081676Y-85739999D01*
X136081116Y-85738573D01*
X136081117Y-85738573D01*
X135949972Y-85511426D01*
X135902124Y-85451427D01*
X135101041Y-86252510D01*
X135076022Y-86192110D01*
X135004888Y-86085649D01*
X134914351Y-85995112D01*
X134807890Y-85923978D01*
X134747488Y-85898958D01*
X135549168Y-85097278D01*
X135377454Y-84980206D01*
X135377445Y-84980201D01*
X135141142Y-84866404D01*
X135141144Y-84866404D01*
X134890505Y-84789092D01*
X134890499Y-84789090D01*
X134631151Y-84750000D01*
X134368848Y-84750000D01*
X134109500Y-84789090D01*
X134109494Y-84789092D01*
X133858858Y-84866404D01*
X133858854Y-84866405D01*
X133622547Y-84980205D01*
X133622539Y-84980210D01*
X133450830Y-85097277D01*
X134252511Y-85898958D01*
X134192110Y-85923978D01*
X134085649Y-85995112D01*
X133995112Y-86085649D01*
X133923978Y-86192110D01*
X133898958Y-86252510D01*
X133097874Y-85451427D01*
X133050028Y-85511425D01*
X132918883Y-85738573D01*
X132823058Y-85982729D01*
X132764693Y-86238449D01*
X132764692Y-86238454D01*
X132745093Y-86499995D01*
X130500500Y-86499995D01*
X130500500Y-75500000D01*
X132944706Y-75500000D01*
X132963853Y-75743297D01*
X132963853Y-75743300D01*
X132963854Y-75743302D01*
X132997148Y-75881981D01*
X133020830Y-75980619D01*
X133114222Y-76206089D01*
X133241737Y-76414173D01*
X133241738Y-76414176D01*
X133241741Y-76414179D01*
X133400241Y-76599759D01*
X133406031Y-76604704D01*
X133444224Y-76663207D01*
X133449500Y-76698994D01*
X133449500Y-79825500D01*
X133429815Y-79892539D01*
X133377011Y-79938294D01*
X133325501Y-79949500D01*
X133205142Y-79949500D01*
X133205119Y-79949502D01*
X133180011Y-79952414D01*
X133180008Y-79952415D01*
X133077235Y-79997793D01*
X132997794Y-80077234D01*
X132952415Y-80180006D01*
X132952415Y-80180008D01*
X132949500Y-80205131D01*
X132949500Y-82794856D01*
X132949502Y-82794882D01*
X132952413Y-82819987D01*
X132952415Y-82819991D01*
X132997793Y-82922764D01*
X132997794Y-82922765D01*
X133077235Y-83002206D01*
X133180009Y-83047585D01*
X133205135Y-83050500D01*
X135794864Y-83050499D01*
X135794879Y-83050497D01*
X135794882Y-83050497D01*
X135819987Y-83047586D01*
X135819988Y-83047585D01*
X135819991Y-83047585D01*
X135922765Y-83002206D01*
X135924972Y-82999999D01*
X141394785Y-82999999D01*
X141394785Y-83000000D01*
X141413602Y-83203082D01*
X141469417Y-83399247D01*
X141469422Y-83399260D01*
X141560327Y-83581821D01*
X141683237Y-83744581D01*
X141833958Y-83881980D01*
X141833960Y-83881982D01*
X141896885Y-83920943D01*
X142007363Y-83989348D01*
X142197544Y-84063024D01*
X142398024Y-84100500D01*
X142398026Y-84100500D01*
X142601974Y-84100500D01*
X142601976Y-84100500D01*
X142802456Y-84063024D01*
X142992637Y-83989348D01*
X143166041Y-83881981D01*
X143316764Y-83744579D01*
X143439673Y-83581821D01*
X143530582Y-83399250D01*
X143586397Y-83203083D01*
X143605215Y-83000000D01*
X143605215Y-82999999D01*
X144394785Y-82999999D01*
X144394785Y-83000000D01*
X144413602Y-83203082D01*
X144469417Y-83399247D01*
X144469422Y-83399260D01*
X144560327Y-83581821D01*
X144683237Y-83744581D01*
X144833958Y-83881980D01*
X144833960Y-83881982D01*
X144896885Y-83920943D01*
X145007363Y-83989348D01*
X145197544Y-84063024D01*
X145398024Y-84100500D01*
X145398026Y-84100500D01*
X145601974Y-84100500D01*
X145601976Y-84100500D01*
X145802456Y-84063024D01*
X145992637Y-83989348D01*
X146166041Y-83881981D01*
X146316764Y-83744579D01*
X146439673Y-83581821D01*
X146530582Y-83399250D01*
X146586397Y-83203083D01*
X146588536Y-83179999D01*
X155894785Y-83179999D01*
X155894785Y-83180000D01*
X155913602Y-83383082D01*
X155969417Y-83579247D01*
X155969422Y-83579260D01*
X156060327Y-83761821D01*
X156183237Y-83924581D01*
X156333958Y-84061980D01*
X156333960Y-84061982D01*
X156396169Y-84100500D01*
X156507363Y-84169348D01*
X156697544Y-84243024D01*
X156898024Y-84280500D01*
X156898026Y-84280500D01*
X157101974Y-84280500D01*
X157101976Y-84280500D01*
X157302456Y-84243024D01*
X157492637Y-84169348D01*
X157666041Y-84061981D01*
X157816764Y-83924579D01*
X157939673Y-83761821D01*
X158030582Y-83579250D01*
X158086397Y-83383083D01*
X158105215Y-83180000D01*
X158086397Y-82976917D01*
X158030582Y-82780750D01*
X157939673Y-82598179D01*
X157816764Y-82435421D01*
X157816762Y-82435418D01*
X157666041Y-82298019D01*
X157666039Y-82298017D01*
X157492642Y-82190655D01*
X157492635Y-82190651D01*
X157336426Y-82130136D01*
X157302456Y-82116976D01*
X157101976Y-82079500D01*
X156898024Y-82079500D01*
X156697544Y-82116976D01*
X156697541Y-82116976D01*
X156697541Y-82116977D01*
X156507364Y-82190651D01*
X156507357Y-82190655D01*
X156333960Y-82298017D01*
X156333958Y-82298019D01*
X156183237Y-82435418D01*
X156060327Y-82598178D01*
X155969422Y-82780739D01*
X155969417Y-82780752D01*
X155913602Y-82976917D01*
X155894785Y-83179999D01*
X146588536Y-83179999D01*
X146605215Y-83000000D01*
X146586397Y-82796917D01*
X146530582Y-82600750D01*
X146529301Y-82598178D01*
X146448257Y-82435418D01*
X146439673Y-82418179D01*
X146354179Y-82304966D01*
X146316762Y-82255418D01*
X146166041Y-82118019D01*
X146166039Y-82118017D01*
X145992642Y-82010655D01*
X145992635Y-82010651D01*
X145894836Y-81972764D01*
X145802456Y-81936976D01*
X145601976Y-81899500D01*
X145398024Y-81899500D01*
X145197544Y-81936976D01*
X145197541Y-81936976D01*
X145197541Y-81936977D01*
X145007364Y-82010651D01*
X145007357Y-82010655D01*
X144833960Y-82118017D01*
X144833958Y-82118019D01*
X144683237Y-82255418D01*
X144560327Y-82418178D01*
X144469422Y-82600739D01*
X144469417Y-82600752D01*
X144413602Y-82796917D01*
X144394785Y-82999999D01*
X143605215Y-82999999D01*
X143586397Y-82796917D01*
X143530582Y-82600750D01*
X143529301Y-82598178D01*
X143448257Y-82435418D01*
X143439673Y-82418179D01*
X143354179Y-82304966D01*
X143316762Y-82255418D01*
X143166041Y-82118019D01*
X143166039Y-82118017D01*
X142992642Y-82010655D01*
X142992635Y-82010651D01*
X142894836Y-81972764D01*
X142802456Y-81936976D01*
X142601976Y-81899500D01*
X142398024Y-81899500D01*
X142197544Y-81936976D01*
X142197541Y-81936976D01*
X142197541Y-81936977D01*
X142007364Y-82010651D01*
X142007357Y-82010655D01*
X141833960Y-82118017D01*
X141833958Y-82118019D01*
X141683237Y-82255418D01*
X141560327Y-82418178D01*
X141469422Y-82600739D01*
X141469417Y-82600752D01*
X141413602Y-82796917D01*
X141394785Y-82999999D01*
X135924972Y-82999999D01*
X136002206Y-82922765D01*
X136047585Y-82819991D01*
X136050500Y-82794865D01*
X136050499Y-80739999D01*
X150414871Y-80739999D01*
X150414871Y-80740000D01*
X150433346Y-80939391D01*
X150433347Y-80939393D01*
X150488145Y-81131989D01*
X150488151Y-81132004D01*
X150577401Y-81311241D01*
X150577406Y-81311249D01*
X150698081Y-81471049D01*
X150825386Y-81587102D01*
X150846064Y-81605952D01*
X151016316Y-81711368D01*
X151203040Y-81783705D01*
X151399877Y-81820500D01*
X151399879Y-81820500D01*
X151600121Y-81820500D01*
X151600123Y-81820500D01*
X151796960Y-81783705D01*
X151983684Y-81711368D01*
X152153936Y-81605952D01*
X152301920Y-81471047D01*
X152422595Y-81311247D01*
X152511853Y-81131994D01*
X152566653Y-80939392D01*
X152585129Y-80740000D01*
X152566653Y-80540608D01*
X152511853Y-80348006D01*
X152511848Y-80347995D01*
X152422598Y-80168758D01*
X152422593Y-80168750D01*
X152301918Y-80008950D01*
X152153937Y-79874049D01*
X152153936Y-79874048D01*
X152029366Y-79796917D01*
X151983685Y-79768632D01*
X151983683Y-79768631D01*
X151844877Y-79714858D01*
X151796960Y-79696295D01*
X151600123Y-79659500D01*
X151399877Y-79659500D01*
X151203040Y-79696295D01*
X151203037Y-79696295D01*
X151203037Y-79696296D01*
X151016316Y-79768631D01*
X151016314Y-79768632D01*
X150846062Y-79874049D01*
X150698081Y-80008950D01*
X150577406Y-80168750D01*
X150577401Y-80168758D01*
X150488151Y-80347995D01*
X150488145Y-80348010D01*
X150433347Y-80540606D01*
X150433346Y-80540608D01*
X150414871Y-80739999D01*
X136050499Y-80739999D01*
X136050499Y-80205136D01*
X136050261Y-80203082D01*
X136047586Y-80180012D01*
X136047585Y-80180010D01*
X136047585Y-80180009D01*
X136002206Y-80077235D01*
X135922765Y-79997794D01*
X135922763Y-79997793D01*
X135819992Y-79952415D01*
X135794868Y-79949500D01*
X135794865Y-79949500D01*
X135674500Y-79949500D01*
X135607461Y-79929815D01*
X135561706Y-79877011D01*
X135550500Y-79825500D01*
X135550500Y-77999997D01*
X141195034Y-77999997D01*
X141195034Y-78000002D01*
X141214858Y-78226599D01*
X141214860Y-78226610D01*
X141273730Y-78446317D01*
X141273735Y-78446331D01*
X141369863Y-78652478D01*
X141420974Y-78725472D01*
X142100000Y-78046446D01*
X142100000Y-78052661D01*
X142127259Y-78154394D01*
X142179920Y-78245606D01*
X142254394Y-78320080D01*
X142345606Y-78372741D01*
X142447339Y-78400000D01*
X142453553Y-78400000D01*
X141774526Y-79079025D01*
X141847513Y-79130132D01*
X141847521Y-79130136D01*
X142053668Y-79226264D01*
X142053682Y-79226269D01*
X142273389Y-79285139D01*
X142273400Y-79285141D01*
X142499998Y-79304966D01*
X142500002Y-79304966D01*
X142726599Y-79285141D01*
X142726610Y-79285139D01*
X142946317Y-79226269D01*
X142946331Y-79226264D01*
X143152478Y-79130136D01*
X143225471Y-79079024D01*
X142546447Y-78400000D01*
X142552661Y-78400000D01*
X142654394Y-78372741D01*
X142745606Y-78320080D01*
X142820080Y-78245606D01*
X142872741Y-78154394D01*
X142900000Y-78052661D01*
X142900000Y-78046447D01*
X143579024Y-78725471D01*
X143630136Y-78652478D01*
X143726264Y-78446331D01*
X143726269Y-78446317D01*
X143785139Y-78226610D01*
X143785141Y-78226599D01*
X143804966Y-78000002D01*
X143804966Y-77999997D01*
X143785141Y-77773400D01*
X143785139Y-77773389D01*
X143726269Y-77553682D01*
X143726264Y-77553668D01*
X143630136Y-77347521D01*
X143630132Y-77347513D01*
X143579025Y-77274526D01*
X142900000Y-77953551D01*
X142900000Y-77947339D01*
X142872741Y-77845606D01*
X142820080Y-77754394D01*
X142745606Y-77679920D01*
X142654394Y-77627259D01*
X142552661Y-77600000D01*
X142546448Y-77600000D01*
X143126446Y-77020000D01*
X151419647Y-77020000D01*
X152359670Y-77020000D01*
X152339925Y-77039745D01*
X152290556Y-77125255D01*
X152265000Y-77220630D01*
X152265000Y-77319370D01*
X152290556Y-77414745D01*
X152339925Y-77500255D01*
X152359670Y-77520000D01*
X151419647Y-77520000D01*
X151429387Y-77568974D01*
X151429390Y-77568983D01*
X151506652Y-77755513D01*
X151506659Y-77755526D01*
X151618829Y-77923399D01*
X151618832Y-77923403D01*
X151761596Y-78066167D01*
X151761600Y-78066170D01*
X151929473Y-78178340D01*
X151929486Y-78178347D01*
X152116016Y-78255609D01*
X152116025Y-78255612D01*
X152314041Y-78294999D01*
X152314045Y-78295000D01*
X152390000Y-78295000D01*
X152390000Y-77550330D01*
X152409745Y-77570075D01*
X152495255Y-77619444D01*
X152590630Y-77645000D01*
X152689370Y-77645000D01*
X152784745Y-77619444D01*
X152870255Y-77570075D01*
X152890000Y-77550330D01*
X152890000Y-78295000D01*
X152965955Y-78295000D01*
X152965958Y-78294999D01*
X153163974Y-78255612D01*
X153163983Y-78255609D01*
X153350513Y-78178347D01*
X153350526Y-78178340D01*
X153518399Y-78066170D01*
X153518403Y-78066167D01*
X153661167Y-77923403D01*
X153661170Y-77923399D01*
X153773340Y-77755526D01*
X153773347Y-77755513D01*
X153850609Y-77568983D01*
X153850612Y-77568974D01*
X153860353Y-77520000D01*
X152920330Y-77520000D01*
X152940075Y-77500255D01*
X152957544Y-77469997D01*
X157695034Y-77469997D01*
X157695034Y-77470002D01*
X157714858Y-77696599D01*
X157714860Y-77696610D01*
X157773730Y-77916317D01*
X157773735Y-77916331D01*
X157869863Y-78122478D01*
X157920974Y-78195472D01*
X158600000Y-77516446D01*
X158600000Y-77522661D01*
X158627259Y-77624394D01*
X158679920Y-77715606D01*
X158754394Y-77790080D01*
X158845606Y-77842741D01*
X158947339Y-77870000D01*
X158953553Y-77870000D01*
X158274526Y-78549025D01*
X158347513Y-78600132D01*
X158347521Y-78600136D01*
X158553668Y-78696264D01*
X158553682Y-78696269D01*
X158639310Y-78719213D01*
X158698971Y-78755578D01*
X158729500Y-78818425D01*
X158721205Y-78887800D01*
X158676720Y-78941678D01*
X158652011Y-78954614D01*
X158507373Y-79010647D01*
X158507357Y-79010655D01*
X158333960Y-79118017D01*
X158333958Y-79118019D01*
X158183237Y-79255418D01*
X158060327Y-79418178D01*
X157969422Y-79600739D01*
X157969417Y-79600752D01*
X157913602Y-79796917D01*
X157894785Y-79999999D01*
X157894785Y-80000000D01*
X157913602Y-80203082D01*
X157969417Y-80399247D01*
X157969422Y-80399260D01*
X158060327Y-80581821D01*
X158183237Y-80744581D01*
X158333958Y-80881980D01*
X158333960Y-80881982D01*
X158426681Y-80939392D01*
X158507363Y-80989348D01*
X158697544Y-81063024D01*
X158898024Y-81100500D01*
X158898026Y-81100500D01*
X159101974Y-81100500D01*
X159101976Y-81100500D01*
X159302456Y-81063024D01*
X159492637Y-80989348D01*
X159666041Y-80881981D01*
X159794122Y-80765219D01*
X159816762Y-80744581D01*
X159816764Y-80744579D01*
X159939673Y-80581821D01*
X160030582Y-80399250D01*
X160086397Y-80203083D01*
X160105215Y-80000000D01*
X160105215Y-79999997D01*
X162695034Y-79999997D01*
X162695034Y-80000002D01*
X162714858Y-80226599D01*
X162714860Y-80226610D01*
X162773730Y-80446317D01*
X162773735Y-80446331D01*
X162869863Y-80652478D01*
X162920974Y-80725472D01*
X163600000Y-80046446D01*
X163600000Y-80052661D01*
X163627259Y-80154394D01*
X163679920Y-80245606D01*
X163754394Y-80320080D01*
X163845606Y-80372741D01*
X163947339Y-80400000D01*
X163953553Y-80400000D01*
X163274526Y-81079025D01*
X163347513Y-81130132D01*
X163347521Y-81130136D01*
X163553668Y-81226264D01*
X163553682Y-81226269D01*
X163773389Y-81285139D01*
X163773400Y-81285141D01*
X163999998Y-81304966D01*
X164000002Y-81304966D01*
X164226599Y-81285141D01*
X164226610Y-81285139D01*
X164446317Y-81226269D01*
X164446331Y-81226264D01*
X164652478Y-81130136D01*
X164725471Y-81079024D01*
X164646444Y-80999997D01*
X167695034Y-80999997D01*
X167695034Y-81000002D01*
X167714858Y-81226599D01*
X167714860Y-81226610D01*
X167773730Y-81446317D01*
X167773735Y-81446331D01*
X167869863Y-81652478D01*
X167920974Y-81725472D01*
X168600000Y-81046446D01*
X168600000Y-81052661D01*
X168627259Y-81154394D01*
X168679920Y-81245606D01*
X168754394Y-81320080D01*
X168845606Y-81372741D01*
X168947339Y-81400000D01*
X168953553Y-81400000D01*
X168274526Y-82079025D01*
X168347513Y-82130132D01*
X168347521Y-82130136D01*
X168553668Y-82226264D01*
X168553682Y-82226269D01*
X168773389Y-82285139D01*
X168773400Y-82285141D01*
X168999998Y-82304966D01*
X169000002Y-82304966D01*
X169226599Y-82285141D01*
X169226610Y-82285139D01*
X169446317Y-82226269D01*
X169446331Y-82226264D01*
X169652478Y-82130136D01*
X169725471Y-82079024D01*
X169046447Y-81400000D01*
X169052661Y-81400000D01*
X169154394Y-81372741D01*
X169245606Y-81320080D01*
X169320080Y-81245606D01*
X169372741Y-81154394D01*
X169400000Y-81052661D01*
X169400000Y-81046447D01*
X170079024Y-81725471D01*
X170130136Y-81652478D01*
X170226264Y-81446331D01*
X170226269Y-81446317D01*
X170285139Y-81226610D01*
X170285141Y-81226599D01*
X170304966Y-81000002D01*
X170304966Y-80999997D01*
X170285141Y-80773400D01*
X170285139Y-80773389D01*
X170226269Y-80553682D01*
X170226264Y-80553668D01*
X170130136Y-80347521D01*
X170130132Y-80347513D01*
X170079025Y-80274526D01*
X169400000Y-80953551D01*
X169400000Y-80947339D01*
X169372741Y-80845606D01*
X169320080Y-80754394D01*
X169245606Y-80679920D01*
X169154394Y-80627259D01*
X169052661Y-80600000D01*
X169046448Y-80600000D01*
X169491316Y-80155131D01*
X171399500Y-80155131D01*
X171399500Y-81844856D01*
X171399502Y-81844882D01*
X171402413Y-81869987D01*
X171402415Y-81869991D01*
X171447793Y-81972764D01*
X171447794Y-81972765D01*
X171527235Y-82052206D01*
X171630009Y-82097585D01*
X171655135Y-82100500D01*
X173344864Y-82100499D01*
X173344879Y-82100497D01*
X173344882Y-82100497D01*
X173369987Y-82097586D01*
X173369988Y-82097585D01*
X173369991Y-82097585D01*
X173472765Y-82052206D01*
X173552206Y-81972765D01*
X173597585Y-81869991D01*
X173600500Y-81844865D01*
X173600499Y-80155136D01*
X173600413Y-80154394D01*
X173597586Y-80130012D01*
X173597585Y-80130010D01*
X173597585Y-80130009D01*
X173552206Y-80027235D01*
X173472765Y-79947794D01*
X173471735Y-79947339D01*
X173369992Y-79902415D01*
X173344865Y-79899500D01*
X171655143Y-79899500D01*
X171655117Y-79899502D01*
X171630012Y-79902413D01*
X171630008Y-79902415D01*
X171527235Y-79947793D01*
X171447794Y-80027234D01*
X171402415Y-80130006D01*
X171402415Y-80130008D01*
X171399500Y-80155131D01*
X169491316Y-80155131D01*
X169725472Y-79920974D01*
X169652478Y-79869863D01*
X169446331Y-79773735D01*
X169446317Y-79773730D01*
X169226610Y-79714860D01*
X169226599Y-79714858D01*
X169000002Y-79695034D01*
X168999998Y-79695034D01*
X168773400Y-79714858D01*
X168773389Y-79714860D01*
X168553682Y-79773730D01*
X168553673Y-79773734D01*
X168347516Y-79869866D01*
X168347512Y-79869868D01*
X168274526Y-79920973D01*
X168274526Y-79920974D01*
X168953553Y-80600000D01*
X168947339Y-80600000D01*
X168845606Y-80627259D01*
X168754394Y-80679920D01*
X168679920Y-80754394D01*
X168627259Y-80845606D01*
X168600000Y-80947339D01*
X168600000Y-80953552D01*
X167920974Y-80274526D01*
X167920973Y-80274526D01*
X167869868Y-80347512D01*
X167869866Y-80347516D01*
X167773734Y-80553673D01*
X167773730Y-80553682D01*
X167714860Y-80773389D01*
X167714858Y-80773400D01*
X167695034Y-80999997D01*
X164646444Y-80999997D01*
X164046447Y-80400000D01*
X164052661Y-80400000D01*
X164154394Y-80372741D01*
X164245606Y-80320080D01*
X164320080Y-80245606D01*
X164372741Y-80154394D01*
X164400000Y-80052661D01*
X164400000Y-80046447D01*
X165079024Y-80725471D01*
X165130136Y-80652478D01*
X165226264Y-80446331D01*
X165226269Y-80446317D01*
X165285139Y-80226610D01*
X165285141Y-80226599D01*
X165304966Y-80000002D01*
X165304966Y-79999997D01*
X165285141Y-79773400D01*
X165285139Y-79773389D01*
X165226269Y-79553682D01*
X165226264Y-79553668D01*
X165130136Y-79347521D01*
X165130132Y-79347513D01*
X165079025Y-79274526D01*
X164400000Y-79953551D01*
X164400000Y-79947339D01*
X164372741Y-79845606D01*
X164320080Y-79754394D01*
X164245606Y-79679920D01*
X164154394Y-79627259D01*
X164052661Y-79600000D01*
X164046448Y-79600000D01*
X164725472Y-78920974D01*
X164652478Y-78869863D01*
X164446331Y-78773735D01*
X164446319Y-78773731D01*
X164360688Y-78750786D01*
X164301028Y-78714420D01*
X164270499Y-78651573D01*
X164278794Y-78582198D01*
X164323280Y-78528320D01*
X164347985Y-78515386D01*
X164492637Y-78459348D01*
X164666041Y-78351981D01*
X164816764Y-78214579D01*
X164939673Y-78051821D01*
X165030582Y-77869250D01*
X165086397Y-77673083D01*
X165105215Y-77470000D01*
X165086397Y-77266917D01*
X165030582Y-77070750D01*
X165015143Y-77039745D01*
X164956002Y-76920973D01*
X164939673Y-76888179D01*
X164853245Y-76773730D01*
X164816762Y-76725418D01*
X164666041Y-76588019D01*
X164666039Y-76588017D01*
X164492642Y-76480655D01*
X164492635Y-76480651D01*
X164321041Y-76414176D01*
X164302456Y-76406976D01*
X164101976Y-76369500D01*
X163898024Y-76369500D01*
X163697544Y-76406976D01*
X163697541Y-76406976D01*
X163697541Y-76406977D01*
X163507364Y-76480651D01*
X163507357Y-76480655D01*
X163333960Y-76588017D01*
X163333958Y-76588019D01*
X163183237Y-76725418D01*
X163060327Y-76888178D01*
X162969422Y-77070739D01*
X162969417Y-77070752D01*
X162913602Y-77266917D01*
X162894785Y-77469999D01*
X162894785Y-77470000D01*
X162913602Y-77673082D01*
X162969417Y-77869247D01*
X162969422Y-77869260D01*
X163060327Y-78051821D01*
X163183237Y-78214581D01*
X163333958Y-78351980D01*
X163333960Y-78351982D01*
X163433141Y-78413392D01*
X163507363Y-78459348D01*
X163652012Y-78515385D01*
X163707412Y-78557957D01*
X163731003Y-78623724D01*
X163715292Y-78691804D01*
X163665268Y-78740583D01*
X163639312Y-78750786D01*
X163553677Y-78773732D01*
X163553673Y-78773734D01*
X163347516Y-78869866D01*
X163347512Y-78869868D01*
X163274526Y-78920973D01*
X163274526Y-78920974D01*
X163953553Y-79600000D01*
X163947339Y-79600000D01*
X163845606Y-79627259D01*
X163754394Y-79679920D01*
X163679920Y-79754394D01*
X163627259Y-79845606D01*
X163600000Y-79947339D01*
X163600000Y-79953552D01*
X162920974Y-79274526D01*
X162920973Y-79274526D01*
X162869868Y-79347512D01*
X162869866Y-79347516D01*
X162773734Y-79553673D01*
X162773730Y-79553682D01*
X162714860Y-79773389D01*
X162714858Y-79773400D01*
X162695034Y-79999997D01*
X160105215Y-79999997D01*
X160105010Y-79997793D01*
X160086397Y-79796917D01*
X160063049Y-79714858D01*
X160030582Y-79600750D01*
X159939673Y-79418179D01*
X159854179Y-79304966D01*
X159816762Y-79255418D01*
X159666041Y-79118019D01*
X159666039Y-79118017D01*
X159492642Y-79010655D01*
X159492635Y-79010651D01*
X159347988Y-78954615D01*
X159292586Y-78912042D01*
X159268996Y-78846275D01*
X159284707Y-78778195D01*
X159334731Y-78729416D01*
X159360689Y-78719213D01*
X159446317Y-78696269D01*
X159446331Y-78696264D01*
X159652478Y-78600136D01*
X159725471Y-78549024D01*
X159046447Y-77870000D01*
X159052661Y-77870000D01*
X159154394Y-77842741D01*
X159245606Y-77790080D01*
X159320080Y-77715606D01*
X159372741Y-77624394D01*
X159400000Y-77522661D01*
X159400000Y-77516447D01*
X160079024Y-78195471D01*
X160130136Y-78122478D01*
X160226264Y-77916331D01*
X160226269Y-77916317D01*
X160285139Y-77696610D01*
X160285141Y-77696599D01*
X160304966Y-77470002D01*
X160304966Y-77469997D01*
X160285141Y-77243400D01*
X160285139Y-77243389D01*
X160226269Y-77023682D01*
X160226264Y-77023668D01*
X160130136Y-76817521D01*
X160130132Y-76817513D01*
X160079025Y-76744526D01*
X159400000Y-77423551D01*
X159400000Y-77417339D01*
X159372741Y-77315606D01*
X159320080Y-77224394D01*
X159245606Y-77149920D01*
X159154394Y-77097259D01*
X159052661Y-77070000D01*
X159046448Y-77070000D01*
X159725472Y-76390974D01*
X159652478Y-76339863D01*
X159446331Y-76243735D01*
X159446317Y-76243730D01*
X159226610Y-76184860D01*
X159226599Y-76184858D01*
X159000002Y-76165034D01*
X158999998Y-76165034D01*
X158773400Y-76184858D01*
X158773389Y-76184860D01*
X158553682Y-76243730D01*
X158553673Y-76243734D01*
X158347516Y-76339866D01*
X158347512Y-76339868D01*
X158274526Y-76390973D01*
X158274526Y-76390974D01*
X158953553Y-77070000D01*
X158947339Y-77070000D01*
X158845606Y-77097259D01*
X158754394Y-77149920D01*
X158679920Y-77224394D01*
X158627259Y-77315606D01*
X158600000Y-77417339D01*
X158600000Y-77423552D01*
X157920974Y-76744526D01*
X157920973Y-76744526D01*
X157869868Y-76817512D01*
X157869866Y-76817516D01*
X157773734Y-77023673D01*
X157773730Y-77023682D01*
X157714860Y-77243389D01*
X157714858Y-77243400D01*
X157695034Y-77469997D01*
X152957544Y-77469997D01*
X152989444Y-77414745D01*
X153015000Y-77319370D01*
X153015000Y-77220630D01*
X152989444Y-77125255D01*
X152940075Y-77039745D01*
X152920330Y-77020000D01*
X153860353Y-77020000D01*
X153850612Y-76971025D01*
X153850609Y-76971016D01*
X153773347Y-76784486D01*
X153773340Y-76784473D01*
X153661171Y-76616601D01*
X153604035Y-76559466D01*
X153570550Y-76498143D01*
X153575534Y-76428451D01*
X153588615Y-76402893D01*
X153596548Y-76391021D01*
X153658776Y-76240789D01*
X153690500Y-76081305D01*
X153690500Y-75918695D01*
X153690500Y-75918692D01*
X153658777Y-75759216D01*
X153658776Y-75759215D01*
X153658776Y-75759211D01*
X153652184Y-75743297D01*
X153596551Y-75608985D01*
X153593675Y-75603604D01*
X153595715Y-75602513D01*
X153577911Y-75545658D01*
X153596394Y-75478277D01*
X153614207Y-75455763D01*
X153642206Y-75427765D01*
X153687585Y-75324991D01*
X153690500Y-75299865D01*
X153690499Y-74319999D01*
X155594785Y-74319999D01*
X155594785Y-74320000D01*
X155613602Y-74523082D01*
X155669417Y-74719247D01*
X155669422Y-74719260D01*
X155760327Y-74901821D01*
X155883237Y-75064581D01*
X156033958Y-75201980D01*
X156033960Y-75201982D01*
X156122330Y-75256698D01*
X156207363Y-75309348D01*
X156397544Y-75383024D01*
X156598024Y-75420500D01*
X156598026Y-75420500D01*
X156801974Y-75420500D01*
X156801976Y-75420500D01*
X157002456Y-75383024D01*
X157192637Y-75309348D01*
X157366041Y-75201981D01*
X157516764Y-75064579D01*
X157639673Y-74901821D01*
X157730582Y-74719250D01*
X157786397Y-74523083D01*
X157805215Y-74320000D01*
X157805215Y-74319999D01*
X163214785Y-74319999D01*
X163214785Y-74320000D01*
X163233602Y-74523082D01*
X163289417Y-74719247D01*
X163289422Y-74719260D01*
X163380327Y-74901821D01*
X163503237Y-75064581D01*
X163653958Y-75201980D01*
X163653960Y-75201982D01*
X163742330Y-75256698D01*
X163827363Y-75309348D01*
X164017544Y-75383024D01*
X164218024Y-75420500D01*
X164218026Y-75420500D01*
X164421974Y-75420500D01*
X164421976Y-75420500D01*
X164622456Y-75383024D01*
X164812637Y-75309348D01*
X164986041Y-75201981D01*
X165136764Y-75064579D01*
X165259673Y-74901821D01*
X165350582Y-74719250D01*
X165406397Y-74523083D01*
X165425215Y-74320000D01*
X165406397Y-74116917D01*
X165350582Y-73920750D01*
X165259673Y-73738179D01*
X165136764Y-73575421D01*
X165136762Y-73575418D01*
X164986041Y-73438019D01*
X164986039Y-73438017D01*
X164812642Y-73330655D01*
X164812635Y-73330651D01*
X164717546Y-73293814D01*
X164622456Y-73256976D01*
X164421976Y-73219500D01*
X164218024Y-73219500D01*
X164017544Y-73256976D01*
X164017541Y-73256976D01*
X164017541Y-73256977D01*
X163827364Y-73330651D01*
X163827357Y-73330655D01*
X163653960Y-73438017D01*
X163653958Y-73438019D01*
X163503237Y-73575418D01*
X163380327Y-73738178D01*
X163289422Y-73920739D01*
X163289417Y-73920752D01*
X163233602Y-74116917D01*
X163214785Y-74319999D01*
X157805215Y-74319999D01*
X157786397Y-74116917D01*
X157730582Y-73920750D01*
X157639673Y-73738179D01*
X157516764Y-73575421D01*
X157516762Y-73575418D01*
X157366041Y-73438019D01*
X157366039Y-73438017D01*
X157192642Y-73330655D01*
X157192635Y-73330651D01*
X157097546Y-73293814D01*
X157002456Y-73256976D01*
X156801976Y-73219500D01*
X156598024Y-73219500D01*
X156397544Y-73256976D01*
X156397541Y-73256976D01*
X156397541Y-73256977D01*
X156207364Y-73330651D01*
X156207357Y-73330655D01*
X156033960Y-73438017D01*
X156033958Y-73438019D01*
X155883237Y-73575418D01*
X155760327Y-73738178D01*
X155669422Y-73920739D01*
X155669417Y-73920752D01*
X155613602Y-74116917D01*
X155594785Y-74319999D01*
X153690499Y-74319999D01*
X153690499Y-74160136D01*
X153690497Y-74160117D01*
X153687586Y-74135012D01*
X153687585Y-74135010D01*
X153687585Y-74135009D01*
X153642206Y-74032235D01*
X153562765Y-73952794D01*
X153562763Y-73952793D01*
X153459992Y-73907415D01*
X153434865Y-73904500D01*
X151845143Y-73904500D01*
X151845117Y-73904502D01*
X151820012Y-73907413D01*
X151820008Y-73907415D01*
X151717235Y-73952793D01*
X151637794Y-74032234D01*
X151592415Y-74135006D01*
X151592415Y-74135008D01*
X151589500Y-74160131D01*
X151589500Y-75299856D01*
X151589502Y-75299882D01*
X151592413Y-75324987D01*
X151592415Y-75324991D01*
X151637793Y-75427764D01*
X151665789Y-75455760D01*
X151699274Y-75517083D01*
X151694290Y-75586775D01*
X151685818Y-75603339D01*
X151686322Y-75603609D01*
X151683450Y-75608980D01*
X151621225Y-75759206D01*
X151621222Y-75759216D01*
X151589500Y-75918692D01*
X151589500Y-75918695D01*
X151589500Y-76081305D01*
X151589500Y-76081307D01*
X151589499Y-76081307D01*
X151621222Y-76240783D01*
X151621225Y-76240793D01*
X151683448Y-76391014D01*
X151683455Y-76391027D01*
X151691384Y-76402893D01*
X151712262Y-76469570D01*
X151693778Y-76536951D01*
X151675965Y-76559464D01*
X151618827Y-76616603D01*
X151506659Y-76784473D01*
X151506652Y-76784486D01*
X151429390Y-76971016D01*
X151429387Y-76971025D01*
X151419647Y-77020000D01*
X143126446Y-77020000D01*
X143225472Y-76920974D01*
X143152478Y-76869863D01*
X142946331Y-76773735D01*
X142946317Y-76773730D01*
X142726610Y-76714860D01*
X142726599Y-76714858D01*
X142500002Y-76695034D01*
X142499998Y-76695034D01*
X142273400Y-76714858D01*
X142273389Y-76714860D01*
X142053682Y-76773730D01*
X142053673Y-76773734D01*
X141847516Y-76869866D01*
X141847512Y-76869868D01*
X141774526Y-76920973D01*
X141774526Y-76920974D01*
X142453553Y-77600000D01*
X142447339Y-77600000D01*
X142345606Y-77627259D01*
X142254394Y-77679920D01*
X142179920Y-77754394D01*
X142127259Y-77845606D01*
X142100000Y-77947339D01*
X142100000Y-77953552D01*
X141420974Y-77274526D01*
X141420973Y-77274526D01*
X141369868Y-77347512D01*
X141369866Y-77347516D01*
X141273734Y-77553673D01*
X141273730Y-77553682D01*
X141214860Y-77773389D01*
X141214858Y-77773400D01*
X141195034Y-77999997D01*
X135550500Y-77999997D01*
X135550500Y-76698994D01*
X135570185Y-76631955D01*
X135593966Y-76604706D01*
X135599759Y-76599759D01*
X135758259Y-76414179D01*
X135885777Y-76206089D01*
X135979172Y-75980612D01*
X136036146Y-75743302D01*
X136055294Y-75500000D01*
X136045850Y-75379999D01*
X144394785Y-75379999D01*
X144394785Y-75380000D01*
X144413602Y-75583082D01*
X144469417Y-75779247D01*
X144469422Y-75779260D01*
X144560327Y-75961821D01*
X144683237Y-76124581D01*
X144833958Y-76261980D01*
X144833960Y-76261982D01*
X144933141Y-76323392D01*
X145007363Y-76369348D01*
X145197544Y-76443024D01*
X145398024Y-76480500D01*
X145398026Y-76480500D01*
X145601974Y-76480500D01*
X145601976Y-76480500D01*
X145802456Y-76443024D01*
X145992637Y-76369348D01*
X146166041Y-76261981D01*
X146316764Y-76124579D01*
X146439673Y-75961821D01*
X146530582Y-75779250D01*
X146586397Y-75583083D01*
X146605215Y-75380000D01*
X146603223Y-75358507D01*
X146586397Y-75176917D01*
X146554434Y-75064581D01*
X146530582Y-74980750D01*
X146439673Y-74798179D01*
X146316764Y-74635421D01*
X146316762Y-74635418D01*
X146166041Y-74498019D01*
X146166039Y-74498017D01*
X145992642Y-74390655D01*
X145992635Y-74390651D01*
X145888287Y-74350227D01*
X145802456Y-74316976D01*
X145601976Y-74279500D01*
X145398024Y-74279500D01*
X145197544Y-74316976D01*
X145197541Y-74316976D01*
X145197541Y-74316977D01*
X145007364Y-74390651D01*
X145007357Y-74390655D01*
X144833960Y-74498017D01*
X144833958Y-74498019D01*
X144683237Y-74635418D01*
X144560327Y-74798178D01*
X144469422Y-74980739D01*
X144469417Y-74980752D01*
X144413602Y-75176917D01*
X144394785Y-75379999D01*
X136045850Y-75379999D01*
X136036146Y-75256698D01*
X135979172Y-75019388D01*
X135979169Y-75019380D01*
X135885777Y-74793910D01*
X135758262Y-74585826D01*
X135758261Y-74585823D01*
X135615079Y-74418179D01*
X135599759Y-74400241D01*
X135458389Y-74279500D01*
X135414176Y-74241738D01*
X135414173Y-74241737D01*
X135206089Y-74114222D01*
X134980618Y-74020830D01*
X134980621Y-74020830D01*
X134874992Y-73995470D01*
X134743302Y-73963854D01*
X134743300Y-73963853D01*
X134743297Y-73963853D01*
X134500000Y-73944706D01*
X134256702Y-73963853D01*
X134256698Y-73963854D01*
X134061774Y-74010652D01*
X134019380Y-74020830D01*
X133793910Y-74114222D01*
X133585826Y-74241737D01*
X133585823Y-74241738D01*
X133400241Y-74400241D01*
X133241738Y-74585823D01*
X133241737Y-74585826D01*
X133114222Y-74793910D01*
X133020830Y-75019380D01*
X132963853Y-75256702D01*
X132944706Y-75500000D01*
X130500500Y-75500000D01*
X130500500Y-72249999D01*
X140101127Y-72249999D01*
X140101128Y-72250000D01*
X141064314Y-72250000D01*
X141059920Y-72254394D01*
X141007259Y-72345606D01*
X140980000Y-72447339D01*
X140980000Y-72552661D01*
X141007259Y-72654394D01*
X141059920Y-72745606D01*
X141064314Y-72750000D01*
X140101128Y-72750000D01*
X140153730Y-72946317D01*
X140153734Y-72946326D01*
X140249865Y-73152482D01*
X140380342Y-73338820D01*
X140541179Y-73499657D01*
X140727517Y-73630134D01*
X140933673Y-73726265D01*
X140933682Y-73726269D01*
X141129999Y-73778872D01*
X141130000Y-73778871D01*
X141130000Y-72815686D01*
X141134394Y-72820080D01*
X141225606Y-72872741D01*
X141327339Y-72900000D01*
X141432661Y-72900000D01*
X141534394Y-72872741D01*
X141625606Y-72820080D01*
X141630000Y-72815686D01*
X141630000Y-73778872D01*
X141826317Y-73726269D01*
X141826326Y-73726265D01*
X142032482Y-73630134D01*
X142218820Y-73499657D01*
X142379657Y-73338820D01*
X142510134Y-73152482D01*
X142606265Y-72946326D01*
X142606269Y-72946317D01*
X142658872Y-72750000D01*
X141695686Y-72750000D01*
X141700080Y-72745606D01*
X141752741Y-72654394D01*
X141780000Y-72552661D01*
X141780000Y-72499999D01*
X147894785Y-72499999D01*
X147894785Y-72500000D01*
X147913602Y-72703082D01*
X147969417Y-72899247D01*
X147969422Y-72899260D01*
X148060327Y-73081821D01*
X148183237Y-73244581D01*
X148333958Y-73381980D01*
X148333960Y-73381982D01*
X148424460Y-73438017D01*
X148507363Y-73489348D01*
X148697544Y-73563024D01*
X148898024Y-73600500D01*
X148898026Y-73600500D01*
X149101974Y-73600500D01*
X149101976Y-73600500D01*
X149302456Y-73563024D01*
X149492637Y-73489348D01*
X149666041Y-73381981D01*
X149816764Y-73244579D01*
X149939673Y-73081821D01*
X150030582Y-72899250D01*
X150086397Y-72703083D01*
X150105215Y-72500000D01*
X150086397Y-72296917D01*
X150030582Y-72100750D01*
X149939673Y-71918179D01*
X149880704Y-71840091D01*
X149816762Y-71755418D01*
X149666041Y-71618019D01*
X149666039Y-71618017D01*
X149492642Y-71510655D01*
X149492635Y-71510651D01*
X149465139Y-71499999D01*
X152394785Y-71499999D01*
X152394785Y-71500000D01*
X152413602Y-71703082D01*
X152469417Y-71899247D01*
X152469422Y-71899260D01*
X152560327Y-72081821D01*
X152683237Y-72244581D01*
X152820300Y-72369529D01*
X152832334Y-72380500D01*
X152833958Y-72381980D01*
X152833960Y-72381982D01*
X152911146Y-72429773D01*
X153007363Y-72489348D01*
X153197544Y-72563024D01*
X153398024Y-72600500D01*
X153398026Y-72600500D01*
X153601974Y-72600500D01*
X153601976Y-72600500D01*
X153802456Y-72563024D01*
X153992637Y-72489348D01*
X154166041Y-72381981D01*
X154299278Y-72260520D01*
X154316762Y-72244581D01*
X154316764Y-72244579D01*
X154439673Y-72081821D01*
X154530582Y-71899250D01*
X154564512Y-71779999D01*
X155594785Y-71779999D01*
X155594785Y-71780000D01*
X155613602Y-71983082D01*
X155669417Y-72179247D01*
X155669422Y-72179260D01*
X155760327Y-72361821D01*
X155883237Y-72524581D01*
X156033958Y-72661980D01*
X156033960Y-72661982D01*
X156100341Y-72703083D01*
X156207363Y-72769348D01*
X156397544Y-72843024D01*
X156598024Y-72880500D01*
X156598026Y-72880500D01*
X156801974Y-72880500D01*
X156801976Y-72880500D01*
X157002456Y-72843024D01*
X157192637Y-72769348D01*
X157366041Y-72661981D01*
X157516764Y-72524579D01*
X157639673Y-72361821D01*
X157730582Y-72179250D01*
X157786397Y-71983083D01*
X157805215Y-71780000D01*
X157802937Y-71755421D01*
X157786397Y-71576917D01*
X157778880Y-71550499D01*
X157730582Y-71380750D01*
X157639673Y-71198179D01*
X157516764Y-71035421D01*
X157516762Y-71035418D01*
X157366041Y-70898019D01*
X157366039Y-70898017D01*
X157192642Y-70790655D01*
X157192635Y-70790651D01*
X157097546Y-70753814D01*
X157002456Y-70716976D01*
X156801976Y-70679500D01*
X156598024Y-70679500D01*
X156397544Y-70716976D01*
X156397541Y-70716976D01*
X156397541Y-70716977D01*
X156207364Y-70790651D01*
X156207357Y-70790655D01*
X156033960Y-70898017D01*
X156033958Y-70898019D01*
X155883237Y-71035418D01*
X155760327Y-71198178D01*
X155669422Y-71380739D01*
X155669417Y-71380752D01*
X155613602Y-71576917D01*
X155594785Y-71779999D01*
X154564512Y-71779999D01*
X154586397Y-71703083D01*
X154605215Y-71500000D01*
X154597889Y-71420943D01*
X154586397Y-71296917D01*
X154579801Y-71273734D01*
X154530582Y-71100750D01*
X154439673Y-70918179D01*
X154380704Y-70840091D01*
X154316762Y-70755418D01*
X154166041Y-70618019D01*
X154166039Y-70618017D01*
X153992642Y-70510655D01*
X153992635Y-70510651D01*
X153897546Y-70473814D01*
X153802456Y-70436976D01*
X153601976Y-70399500D01*
X153398024Y-70399500D01*
X153197544Y-70436976D01*
X153197541Y-70436976D01*
X153197541Y-70436977D01*
X153007364Y-70510651D01*
X153007357Y-70510655D01*
X152833960Y-70618017D01*
X152833958Y-70618019D01*
X152683237Y-70755418D01*
X152560327Y-70918178D01*
X152469422Y-71100739D01*
X152469417Y-71100752D01*
X152413602Y-71296917D01*
X152394785Y-71499999D01*
X149465139Y-71499999D01*
X149397546Y-71473814D01*
X149302456Y-71436976D01*
X149101976Y-71399500D01*
X148898024Y-71399500D01*
X148697544Y-71436976D01*
X148697541Y-71436976D01*
X148697541Y-71436977D01*
X148507364Y-71510651D01*
X148507357Y-71510655D01*
X148333960Y-71618017D01*
X148333958Y-71618019D01*
X148183237Y-71755418D01*
X148060327Y-71918178D01*
X147969422Y-72100739D01*
X147969417Y-72100752D01*
X147913602Y-72296917D01*
X147894785Y-72499999D01*
X141780000Y-72499999D01*
X141780000Y-72447339D01*
X141752741Y-72345606D01*
X141700080Y-72254394D01*
X141695686Y-72250000D01*
X142658872Y-72250000D01*
X142658872Y-72249999D01*
X142606269Y-72053682D01*
X142606265Y-72053673D01*
X142510134Y-71847517D01*
X142379657Y-71661179D01*
X142218820Y-71500342D01*
X142032482Y-71369865D01*
X141826328Y-71273734D01*
X141630000Y-71221127D01*
X141630000Y-72184314D01*
X141625606Y-72179920D01*
X141534394Y-72127259D01*
X141432661Y-72100000D01*
X141327339Y-72100000D01*
X141225606Y-72127259D01*
X141134394Y-72179920D01*
X141130000Y-72184314D01*
X141130000Y-71221127D01*
X140933671Y-71273734D01*
X140727517Y-71369865D01*
X140541179Y-71500342D01*
X140380342Y-71661179D01*
X140249865Y-71847517D01*
X140153734Y-72053673D01*
X140153730Y-72053682D01*
X140101127Y-72249999D01*
X130500500Y-72249999D01*
X130500500Y-69205131D01*
X132949500Y-69205131D01*
X132949500Y-71794856D01*
X132949502Y-71794882D01*
X132952413Y-71819987D01*
X132952415Y-71819991D01*
X132997793Y-71922764D01*
X132997794Y-71922765D01*
X133077235Y-72002206D01*
X133180009Y-72047585D01*
X133205135Y-72050500D01*
X135794864Y-72050499D01*
X135794879Y-72050497D01*
X135794882Y-72050497D01*
X135819987Y-72047586D01*
X135819988Y-72047585D01*
X135819991Y-72047585D01*
X135922765Y-72002206D01*
X136002206Y-71922765D01*
X136047585Y-71819991D01*
X136050500Y-71794865D01*
X136050500Y-71674500D01*
X136070185Y-71607461D01*
X136122989Y-71561706D01*
X136174500Y-71550500D01*
X138603466Y-71550500D01*
X138603467Y-71550499D01*
X138806420Y-71510130D01*
X138997598Y-71430941D01*
X139012561Y-71420943D01*
X139169655Y-71315977D01*
X139315977Y-71169655D01*
X139315978Y-71169653D01*
X139323044Y-71162587D01*
X139323046Y-71162583D01*
X140398812Y-70086819D01*
X140460135Y-70053334D01*
X140486493Y-70050500D01*
X141022038Y-70050500D01*
X141066830Y-70058873D01*
X141077544Y-70063024D01*
X141278024Y-70100500D01*
X141278026Y-70100500D01*
X141481974Y-70100500D01*
X141481976Y-70100500D01*
X141682456Y-70063024D01*
X141693169Y-70058873D01*
X141737962Y-70050500D01*
X145603466Y-70050500D01*
X145603467Y-70050499D01*
X145806420Y-70010130D01*
X145997598Y-69930941D01*
X146013174Y-69920533D01*
X146023582Y-69913580D01*
X146121524Y-69848137D01*
X146169655Y-69815977D01*
X146315977Y-69669655D01*
X146315978Y-69669653D01*
X146323044Y-69662587D01*
X146323047Y-69662583D01*
X146985631Y-68999999D01*
X147894785Y-68999999D01*
X147894785Y-69000000D01*
X147913602Y-69203082D01*
X147969417Y-69399247D01*
X147969422Y-69399260D01*
X148060327Y-69581821D01*
X148183237Y-69744581D01*
X148333958Y-69881980D01*
X148333960Y-69881982D01*
X148384993Y-69913580D01*
X148507363Y-69989348D01*
X148697544Y-70063024D01*
X148898024Y-70100500D01*
X148898026Y-70100500D01*
X149101974Y-70100500D01*
X149101976Y-70100500D01*
X149302456Y-70063024D01*
X149492637Y-69989348D01*
X149666041Y-69881981D01*
X149816764Y-69744579D01*
X149939673Y-69581821D01*
X150030582Y-69399250D01*
X150086397Y-69203083D01*
X150105215Y-69000000D01*
X150105010Y-68997793D01*
X150086397Y-68796917D01*
X150075744Y-68759475D01*
X150030582Y-68600750D01*
X150025342Y-68590227D01*
X149978133Y-68495418D01*
X149939673Y-68418179D01*
X149816764Y-68255421D01*
X149816762Y-68255418D01*
X149666041Y-68118019D01*
X149666039Y-68118017D01*
X149492642Y-68010655D01*
X149492635Y-68010651D01*
X149327469Y-67946666D01*
X149302456Y-67936976D01*
X149101976Y-67899500D01*
X148898024Y-67899500D01*
X148697544Y-67936976D01*
X148697541Y-67936976D01*
X148697541Y-67936977D01*
X148507364Y-68010651D01*
X148507357Y-68010655D01*
X148333960Y-68118017D01*
X148333958Y-68118019D01*
X148183237Y-68255418D01*
X148060327Y-68418178D01*
X147969422Y-68600739D01*
X147969417Y-68600752D01*
X147913602Y-68796917D01*
X147894785Y-68999999D01*
X146985631Y-68999999D01*
X149485633Y-66499997D01*
X152195034Y-66499997D01*
X152195034Y-66500002D01*
X152214858Y-66726599D01*
X152214860Y-66726610D01*
X152273730Y-66946317D01*
X152273735Y-66946331D01*
X152369863Y-67152478D01*
X152420974Y-67225472D01*
X153100000Y-66546446D01*
X153100000Y-66552661D01*
X153127259Y-66654394D01*
X153179920Y-66745606D01*
X153254394Y-66820080D01*
X153345606Y-66872741D01*
X153447339Y-66900000D01*
X153453553Y-66900000D01*
X152774526Y-67579025D01*
X152847513Y-67630132D01*
X152847521Y-67630136D01*
X153053668Y-67726264D01*
X153053682Y-67726269D01*
X153273389Y-67785139D01*
X153273400Y-67785141D01*
X153499998Y-67804966D01*
X153500002Y-67804966D01*
X153726599Y-67785141D01*
X153726610Y-67785139D01*
X153946317Y-67726269D01*
X153946331Y-67726264D01*
X154152478Y-67630136D01*
X154225471Y-67579024D01*
X153546447Y-66900000D01*
X153552661Y-66900000D01*
X153654394Y-66872741D01*
X153745606Y-66820080D01*
X153820080Y-66745606D01*
X153872741Y-66654394D01*
X153900000Y-66552661D01*
X153900000Y-66546447D01*
X154579024Y-67225471D01*
X154630136Y-67152478D01*
X154726264Y-66946331D01*
X154726269Y-66946317D01*
X154785139Y-66726610D01*
X154785141Y-66726599D01*
X154804966Y-66500002D01*
X154804966Y-66499997D01*
X154785141Y-66273400D01*
X154785139Y-66273389D01*
X154726269Y-66053682D01*
X154726264Y-66053668D01*
X154632297Y-65852155D01*
X155400000Y-65852155D01*
X155400000Y-66450000D01*
X156384314Y-66450000D01*
X156379920Y-66454394D01*
X156327259Y-66545606D01*
X156300000Y-66647339D01*
X156300000Y-66752661D01*
X156327259Y-66854394D01*
X156379920Y-66945606D01*
X156384314Y-66950000D01*
X155400000Y-66950000D01*
X155400000Y-67547844D01*
X155406401Y-67607372D01*
X155406403Y-67607379D01*
X155456645Y-67742086D01*
X155456649Y-67742093D01*
X155542809Y-67857187D01*
X155542812Y-67857190D01*
X155657906Y-67943350D01*
X155657913Y-67943354D01*
X155792620Y-67993596D01*
X155792627Y-67993598D01*
X155852155Y-67999999D01*
X155852172Y-68000000D01*
X156191029Y-68000000D01*
X156258068Y-68019685D01*
X156303823Y-68072489D01*
X156313767Y-68141647D01*
X156284742Y-68205203D01*
X156235824Y-68239626D01*
X156224820Y-68243889D01*
X156207364Y-68250651D01*
X156207357Y-68250655D01*
X156033960Y-68358017D01*
X156033958Y-68358019D01*
X155883237Y-68495418D01*
X155760327Y-68658178D01*
X155669422Y-68840739D01*
X155669417Y-68840752D01*
X155613602Y-69036917D01*
X155594785Y-69239999D01*
X155594785Y-69240000D01*
X155613602Y-69443082D01*
X155669417Y-69639247D01*
X155669422Y-69639260D01*
X155760327Y-69821821D01*
X155883237Y-69984581D01*
X156033958Y-70121980D01*
X156033960Y-70121982D01*
X156133141Y-70183392D01*
X156207363Y-70229348D01*
X156397544Y-70303024D01*
X156598024Y-70340500D01*
X156598026Y-70340500D01*
X156801974Y-70340500D01*
X156801976Y-70340500D01*
X157002456Y-70303024D01*
X157192637Y-70229348D01*
X157366041Y-70121981D01*
X157516764Y-69984579D01*
X157588358Y-69889773D01*
X157644467Y-69848137D01*
X157687312Y-69840500D01*
X158157403Y-69840500D01*
X158224442Y-69860185D01*
X158245084Y-69876819D01*
X160512639Y-72144374D01*
X160512649Y-72144385D01*
X160516979Y-72148715D01*
X160516980Y-72148716D01*
X160628784Y-72260520D01*
X160628786Y-72260521D01*
X160628790Y-72260524D01*
X160765709Y-72339573D01*
X160765716Y-72339577D01*
X160877519Y-72369534D01*
X160918442Y-72380500D01*
X160918443Y-72380500D01*
X163332688Y-72380500D01*
X163399727Y-72400185D01*
X163431642Y-72429773D01*
X163503237Y-72524581D01*
X163653958Y-72661980D01*
X163653960Y-72661982D01*
X163720341Y-72703083D01*
X163827363Y-72769348D01*
X164017544Y-72843024D01*
X164218024Y-72880500D01*
X164218026Y-72880500D01*
X164421974Y-72880500D01*
X164421976Y-72880500D01*
X164622456Y-72843024D01*
X164812637Y-72769348D01*
X164986041Y-72661981D01*
X165136764Y-72524579D01*
X165259673Y-72361821D01*
X165350582Y-72179250D01*
X165406397Y-71983083D01*
X165425215Y-71780000D01*
X165422937Y-71755421D01*
X165406397Y-71576917D01*
X165398880Y-71550499D01*
X165384511Y-71499999D01*
X166084785Y-71499999D01*
X166084785Y-71500000D01*
X166103602Y-71703082D01*
X166159417Y-71899247D01*
X166159422Y-71899260D01*
X166250327Y-72081821D01*
X166373237Y-72244581D01*
X166510300Y-72369529D01*
X166522334Y-72380500D01*
X166523958Y-72381980D01*
X166523960Y-72381982D01*
X166601146Y-72429773D01*
X166697363Y-72489348D01*
X166887544Y-72563024D01*
X167088024Y-72600500D01*
X167088026Y-72600500D01*
X167291974Y-72600500D01*
X167291976Y-72600500D01*
X167492456Y-72563024D01*
X167682637Y-72489348D01*
X167856041Y-72381981D01*
X167989278Y-72260520D01*
X168006762Y-72244581D01*
X168006764Y-72244579D01*
X168129673Y-72081821D01*
X168220582Y-71899250D01*
X168276397Y-71703083D01*
X168295215Y-71500000D01*
X168287889Y-71420943D01*
X168276397Y-71296917D01*
X168269801Y-71273734D01*
X168220582Y-71100750D01*
X168129673Y-70918179D01*
X168070704Y-70840091D01*
X168006762Y-70755418D01*
X167856041Y-70618019D01*
X167856039Y-70618017D01*
X167682642Y-70510655D01*
X167682635Y-70510651D01*
X167587546Y-70473814D01*
X167492456Y-70436976D01*
X167291976Y-70399500D01*
X167088024Y-70399500D01*
X166887544Y-70436976D01*
X166887541Y-70436976D01*
X166887541Y-70436977D01*
X166697364Y-70510651D01*
X166697357Y-70510655D01*
X166523960Y-70618017D01*
X166523958Y-70618019D01*
X166373237Y-70755418D01*
X166250327Y-70918178D01*
X166159422Y-71100739D01*
X166159417Y-71100752D01*
X166103602Y-71296917D01*
X166084785Y-71499999D01*
X165384511Y-71499999D01*
X165350582Y-71380750D01*
X165259673Y-71198179D01*
X165136764Y-71035421D01*
X165136762Y-71035418D01*
X164986041Y-70898019D01*
X164986039Y-70898017D01*
X164812642Y-70790655D01*
X164812635Y-70790651D01*
X164717546Y-70753814D01*
X164622456Y-70716976D01*
X164421976Y-70679500D01*
X164218024Y-70679500D01*
X164017544Y-70716976D01*
X164017541Y-70716976D01*
X164017541Y-70716977D01*
X163827364Y-70790651D01*
X163827357Y-70790655D01*
X163653960Y-70898017D01*
X163653958Y-70898019D01*
X163503237Y-71035418D01*
X163431642Y-71130227D01*
X163375533Y-71171863D01*
X163332688Y-71179500D01*
X161297597Y-71179500D01*
X161230558Y-71159815D01*
X161209916Y-71143181D01*
X159306734Y-69239999D01*
X163214785Y-69239999D01*
X163214785Y-69240000D01*
X163233602Y-69443082D01*
X163289417Y-69639247D01*
X163289422Y-69639260D01*
X163380327Y-69821821D01*
X163503237Y-69984581D01*
X163653958Y-70121980D01*
X163653960Y-70121982D01*
X163753141Y-70183392D01*
X163827363Y-70229348D01*
X164017544Y-70303024D01*
X164218024Y-70340500D01*
X164218026Y-70340500D01*
X164421974Y-70340500D01*
X164421976Y-70340500D01*
X164622456Y-70303024D01*
X164812637Y-70229348D01*
X164986041Y-70121981D01*
X165136764Y-69984579D01*
X165259673Y-69821821D01*
X165350582Y-69639250D01*
X165406397Y-69443083D01*
X165425215Y-69240000D01*
X165421984Y-69205136D01*
X165406397Y-69036917D01*
X165381525Y-68949502D01*
X165350582Y-68840750D01*
X165259673Y-68658179D01*
X165136764Y-68495421D01*
X165136762Y-68495418D01*
X164986041Y-68358019D01*
X164986039Y-68358017D01*
X164812642Y-68250655D01*
X164812635Y-68250651D01*
X164695319Y-68205203D01*
X164622456Y-68176976D01*
X164421976Y-68139500D01*
X164218024Y-68139500D01*
X164017544Y-68176976D01*
X164017541Y-68176976D01*
X164017541Y-68176977D01*
X163827364Y-68250651D01*
X163827357Y-68250655D01*
X163653960Y-68358017D01*
X163653958Y-68358019D01*
X163503237Y-68495418D01*
X163380327Y-68658178D01*
X163289422Y-68840739D01*
X163289417Y-68840752D01*
X163233602Y-69036917D01*
X163214785Y-69239999D01*
X159306734Y-69239999D01*
X158945090Y-68878355D01*
X158945088Y-68878352D01*
X158826217Y-68759481D01*
X158826209Y-68759475D01*
X158712074Y-68693580D01*
X158712074Y-68693579D01*
X158712069Y-68693578D01*
X158704118Y-68688987D01*
X158689286Y-68680423D01*
X158651103Y-68670192D01*
X158536557Y-68639499D01*
X158378443Y-68639499D01*
X158370847Y-68639499D01*
X158370831Y-68639500D01*
X157687312Y-68639500D01*
X157620273Y-68619815D01*
X157588358Y-68590227D01*
X157516762Y-68495418D01*
X157366041Y-68358019D01*
X157366039Y-68358017D01*
X157192642Y-68250655D01*
X157192635Y-68250651D01*
X157182151Y-68246590D01*
X157164175Y-68239626D01*
X157108776Y-68197054D01*
X157085185Y-68131287D01*
X157100896Y-68063207D01*
X157150920Y-68014428D01*
X157208971Y-68000000D01*
X157547828Y-68000000D01*
X157547844Y-67999999D01*
X157607372Y-67993598D01*
X157607379Y-67993596D01*
X157742086Y-67943354D01*
X157742093Y-67943350D01*
X157857187Y-67857190D01*
X157857190Y-67857187D01*
X157943350Y-67742093D01*
X157943354Y-67742086D01*
X157993596Y-67607379D01*
X157993598Y-67607372D01*
X157999999Y-67547844D01*
X158000000Y-67547827D01*
X158000000Y-66950000D01*
X157015686Y-66950000D01*
X157020080Y-66945606D01*
X157072741Y-66854394D01*
X157100000Y-66752661D01*
X157100000Y-66699999D01*
X163214785Y-66699999D01*
X163214785Y-66700000D01*
X163233602Y-66903082D01*
X163289417Y-67099247D01*
X163289422Y-67099260D01*
X163380327Y-67281821D01*
X163503237Y-67444581D01*
X163653958Y-67581980D01*
X163653960Y-67581982D01*
X163694967Y-67607372D01*
X163827363Y-67689348D01*
X164017544Y-67763024D01*
X164218024Y-67800500D01*
X164218026Y-67800500D01*
X164421974Y-67800500D01*
X164421976Y-67800500D01*
X164622456Y-67763024D01*
X164812637Y-67689348D01*
X164986041Y-67581981D01*
X165136764Y-67444579D01*
X165259673Y-67281821D01*
X165350582Y-67099250D01*
X165406397Y-66903083D01*
X165425215Y-66700000D01*
X165406397Y-66496917D01*
X165350582Y-66300750D01*
X165336963Y-66273400D01*
X165285305Y-66169655D01*
X165259673Y-66118179D01*
X165200704Y-66040091D01*
X165136762Y-65955418D01*
X164986041Y-65818019D01*
X164986039Y-65818017D01*
X164812642Y-65710655D01*
X164812635Y-65710651D01*
X164676483Y-65657906D01*
X164622456Y-65636976D01*
X164421976Y-65599500D01*
X164218024Y-65599500D01*
X164017544Y-65636976D01*
X164017541Y-65636976D01*
X164017541Y-65636977D01*
X163827364Y-65710651D01*
X163827357Y-65710655D01*
X163653960Y-65818017D01*
X163653958Y-65818019D01*
X163503237Y-65955418D01*
X163380327Y-66118178D01*
X163289422Y-66300739D01*
X163289417Y-66300752D01*
X163233602Y-66496917D01*
X163214785Y-66699999D01*
X157100000Y-66699999D01*
X157100000Y-66647339D01*
X157072741Y-66545606D01*
X157020080Y-66454394D01*
X157015686Y-66450000D01*
X158000000Y-66450000D01*
X158000000Y-65852172D01*
X157999999Y-65852155D01*
X157993598Y-65792627D01*
X157993596Y-65792620D01*
X157943354Y-65657913D01*
X157943350Y-65657906D01*
X157857190Y-65542812D01*
X157857187Y-65542809D01*
X157742093Y-65456649D01*
X157742086Y-65456645D01*
X157607379Y-65406403D01*
X157607372Y-65406401D01*
X157547844Y-65400000D01*
X156950000Y-65400000D01*
X156950000Y-66384314D01*
X156945606Y-66379920D01*
X156854394Y-66327259D01*
X156752661Y-66300000D01*
X156647339Y-66300000D01*
X156545606Y-66327259D01*
X156454394Y-66379920D01*
X156450000Y-66384314D01*
X156450000Y-65400000D01*
X155852155Y-65400000D01*
X155792627Y-65406401D01*
X155792620Y-65406403D01*
X155657913Y-65456645D01*
X155657906Y-65456649D01*
X155542812Y-65542809D01*
X155542809Y-65542812D01*
X155456649Y-65657906D01*
X155456645Y-65657913D01*
X155406403Y-65792620D01*
X155406401Y-65792627D01*
X155400000Y-65852155D01*
X154632297Y-65852155D01*
X154630136Y-65847521D01*
X154630132Y-65847513D01*
X154579025Y-65774526D01*
X153900000Y-66453551D01*
X153900000Y-66447339D01*
X153872741Y-66345606D01*
X153820080Y-66254394D01*
X153745606Y-66179920D01*
X153654394Y-66127259D01*
X153552661Y-66100000D01*
X153546448Y-66100000D01*
X154225472Y-65420974D01*
X154152478Y-65369863D01*
X153946331Y-65273735D01*
X153946317Y-65273730D01*
X153726610Y-65214860D01*
X153726599Y-65214858D01*
X153500002Y-65195034D01*
X153499998Y-65195034D01*
X153273400Y-65214858D01*
X153273389Y-65214860D01*
X153053682Y-65273730D01*
X153053673Y-65273734D01*
X152847516Y-65369866D01*
X152847512Y-65369868D01*
X152774526Y-65420973D01*
X152774526Y-65420974D01*
X153453553Y-66100000D01*
X153447339Y-66100000D01*
X153345606Y-66127259D01*
X153254394Y-66179920D01*
X153179920Y-66254394D01*
X153127259Y-66345606D01*
X153100000Y-66447339D01*
X153100000Y-66453552D01*
X152420974Y-65774526D01*
X152420973Y-65774526D01*
X152369868Y-65847512D01*
X152369866Y-65847516D01*
X152273734Y-66053673D01*
X152273730Y-66053682D01*
X152214860Y-66273389D01*
X152214858Y-66273400D01*
X152195034Y-66499997D01*
X149485633Y-66499997D01*
X149669651Y-66315979D01*
X149669655Y-66315977D01*
X149815977Y-66169655D01*
X149930941Y-65997598D01*
X150010130Y-65806420D01*
X150010131Y-65806416D01*
X150011898Y-65800593D01*
X150013130Y-65800966D01*
X150030918Y-65760292D01*
X150071662Y-65704215D01*
X150161201Y-65528485D01*
X150222147Y-65340912D01*
X150245252Y-65195034D01*
X150253000Y-65146118D01*
X150253000Y-64853881D01*
X150235050Y-64740559D01*
X150222147Y-64659088D01*
X150161201Y-64471515D01*
X150071662Y-64295785D01*
X149955735Y-64136225D01*
X149816275Y-63996765D01*
X149656715Y-63880838D01*
X149480982Y-63791297D01*
X149293413Y-63730353D01*
X149098618Y-63699500D01*
X149098613Y-63699500D01*
X148901387Y-63699500D01*
X148901382Y-63699500D01*
X148706586Y-63730353D01*
X148519017Y-63791297D01*
X148343284Y-63880838D01*
X148183722Y-63996767D01*
X148044267Y-64136222D01*
X147928338Y-64295784D01*
X147840485Y-64468205D01*
X147792510Y-64519001D01*
X147724689Y-64535796D01*
X147658554Y-64513258D01*
X147619515Y-64468205D01*
X147550150Y-64332070D01*
X147531662Y-64295785D01*
X147415735Y-64136225D01*
X147276275Y-63996765D01*
X147116715Y-63880838D01*
X146940982Y-63791297D01*
X146753413Y-63730353D01*
X146558618Y-63699500D01*
X146558613Y-63699500D01*
X146361387Y-63699500D01*
X146361382Y-63699500D01*
X146166586Y-63730353D01*
X145979017Y-63791297D01*
X145803284Y-63880838D01*
X145643722Y-63996767D01*
X145504267Y-64136222D01*
X145504267Y-64136223D01*
X145504265Y-64136225D01*
X145450272Y-64210540D01*
X145397317Y-64283426D01*
X145341987Y-64326091D01*
X145272373Y-64332070D01*
X145210578Y-64299464D01*
X145176221Y-64238625D01*
X145172999Y-64210540D01*
X145172999Y-63955143D01*
X145172999Y-63955136D01*
X145172997Y-63955117D01*
X145170086Y-63930012D01*
X145170085Y-63930010D01*
X145170085Y-63930009D01*
X145124706Y-63827235D01*
X145045265Y-63747794D01*
X145005765Y-63730353D01*
X144942492Y-63702415D01*
X144917365Y-63699500D01*
X142922643Y-63699500D01*
X142922617Y-63699502D01*
X142897512Y-63702413D01*
X142897508Y-63702415D01*
X142794735Y-63747793D01*
X142715294Y-63827234D01*
X142669915Y-63930006D01*
X142669915Y-63930008D01*
X142667000Y-63955131D01*
X142667000Y-66044856D01*
X142667002Y-66044882D01*
X142669913Y-66069987D01*
X142669915Y-66069991D01*
X142715293Y-66172764D01*
X142715294Y-66172765D01*
X142794735Y-66252206D01*
X142897509Y-66297585D01*
X142922635Y-66300500D01*
X144917364Y-66300499D01*
X144917379Y-66300497D01*
X144917382Y-66300497D01*
X144942487Y-66297586D01*
X144942488Y-66297585D01*
X144942491Y-66297585D01*
X145045265Y-66252206D01*
X145124706Y-66172765D01*
X145170085Y-66069991D01*
X145173000Y-66044865D01*
X145172999Y-65789457D01*
X145192683Y-65722421D01*
X145245487Y-65676666D01*
X145314646Y-65666722D01*
X145378201Y-65695747D01*
X145397317Y-65716574D01*
X145504265Y-65863775D01*
X145643725Y-66003235D01*
X145803285Y-66119162D01*
X145979015Y-66208701D01*
X145979017Y-66208702D01*
X146072801Y-66239174D01*
X146166588Y-66269647D01*
X146256807Y-66283936D01*
X146361382Y-66300500D01*
X146414506Y-66300500D01*
X146481545Y-66320185D01*
X146527300Y-66372989D01*
X146537244Y-66442147D01*
X146508219Y-66505703D01*
X146502187Y-66512181D01*
X145101188Y-67913181D01*
X145039865Y-67946666D01*
X145013507Y-67949500D01*
X141737962Y-67949500D01*
X141693169Y-67941126D01*
X141682456Y-67936976D01*
X141481976Y-67899500D01*
X141278024Y-67899500D01*
X141077544Y-67936976D01*
X141077542Y-67936976D01*
X141077540Y-67936977D01*
X141072010Y-67939119D01*
X141066830Y-67941126D01*
X141022038Y-67949500D01*
X139896529Y-67949500D01*
X139862862Y-67956195D01*
X139862863Y-67956196D01*
X139693585Y-67989868D01*
X139693579Y-67989870D01*
X139502403Y-68069058D01*
X139330344Y-68184023D01*
X139274741Y-68239627D01*
X139184023Y-68330345D01*
X139184020Y-68330348D01*
X138636014Y-68878355D01*
X138101188Y-69413181D01*
X138039865Y-69446666D01*
X138013507Y-69449500D01*
X136174499Y-69449500D01*
X136107460Y-69429815D01*
X136061705Y-69377011D01*
X136050499Y-69325500D01*
X136050499Y-69205143D01*
X136050499Y-69205136D01*
X136050261Y-69203082D01*
X136047586Y-69180012D01*
X136047585Y-69180010D01*
X136047585Y-69180009D01*
X136002206Y-69077235D01*
X135922765Y-68997794D01*
X135922763Y-68997793D01*
X135819992Y-68952415D01*
X135794865Y-68949500D01*
X133205143Y-68949500D01*
X133205117Y-68949502D01*
X133180012Y-68952413D01*
X133180008Y-68952415D01*
X133077235Y-68997793D01*
X132997794Y-69077234D01*
X132952415Y-69180006D01*
X132952415Y-69180008D01*
X132949500Y-69205131D01*
X130500500Y-69205131D01*
X130500500Y-61124500D01*
X130520185Y-61057461D01*
X130572989Y-61011706D01*
X130624500Y-61000500D01*
X175875500Y-61000500D01*
X175942539Y-61020185D01*
G37*
G04 #@! TD.AperFunction*
M02*
