M48
; DRILL file {KiCad 8.0.6} date 2024-12-30T14:34:13+0100
; FORMAT={-:-/ absolute / metric / decimal}
; #@! TF.CreationDate,2024-12-30T14:34:13+01:00
; #@! TF.GenerationSoftware,Kicad,Pcbnew,8.0.6
; #@! TF.FileFunction,Plated,1,2,PTH
FMAT,2
METRIC
; #@! TA.AperFunction,Plated,PTH,ComponentDrill
T1C0.750
; #@! TA.AperFunction,Plated,PTH,ComponentDrill
T2C0.800
; #@! TA.AperFunction,Plated,PTH,ComponentDrill
T3C0.900
; #@! TA.AperFunction,Plated,PTH,ComponentDrill
T4C1.000
; #@! TA.AperFunction,Plated,PTH,ComponentDrill
T5C1.100
; #@! TA.AperFunction,Plated,PTH,ComponentDrill
T6C1.300
; #@! TA.AperFunction,Plated,PTH,ViaDrill
T7C3.500
%
G90
G05
T1
X152.64Y-74.73
X152.64Y-76.0
X152.64Y-77.27
T2
X141.38Y-69.0
X141.38Y-72.5
X142.5Y-78.0
X142.5Y-83.0
X145.5Y-75.38
X145.5Y-83.0
X149.0Y-69.0
X149.0Y-72.5
X153.5Y-66.5
X153.5Y-71.5
X156.7Y-66.7
X156.7Y-69.24
X156.7Y-71.78
X156.7Y-74.32
X157.0Y-83.18
X157.0Y-85.72
X157.0Y-88.26
X157.0Y-90.8
X157.0Y-94.0
X159.0Y-77.47
X159.0Y-80.0
X162.0Y-94.0
X164.0Y-77.47
X164.0Y-80.0
X164.32Y-66.7
X164.32Y-69.24
X164.32Y-71.78
X164.32Y-74.32
X164.62Y-83.18
X164.62Y-85.72
X164.62Y-88.26
X164.62Y-90.8
X167.19Y-71.5
X167.19Y-75.0
X169.0Y-81.0
X172.5Y-81.0
X174.81Y-71.5
X174.81Y-75.0
T3
X142.2Y-88.0
X142.2Y-90.5
X142.2Y-93.0
X145.5Y-88.0
X145.5Y-90.5
X145.5Y-93.0
T4
X139.0Y-91.46
X139.0Y-94.0
X149.0Y-85.74
X149.0Y-93.68
X151.5Y-80.74
X151.5Y-88.68
X154.0Y-85.74
X154.0Y-93.68
X168.42Y-87.5
X170.96Y-87.5
X173.5Y-87.5
T5
X143.92Y-65.0
X146.46Y-65.0
X149.0Y-65.0
T6
X134.5Y-70.5
X134.5Y-75.5
X134.5Y-81.5
X134.5Y-86.5
T7
X133.5Y-64.0
X133.5Y-93.0
X173.0Y-64.0
X173.0Y-93.0
M30
