G04 #@! TF.GenerationSoftware,KiCad,Pcbnew,8.0.6*
G04 #@! TF.CreationDate,2024-12-30T14:11:03+01:00*
G04 #@! TF.ProjectId,UselessBox,5573656c-6573-4734-926f-782e6b696361,rev?*
G04 #@! TF.SameCoordinates,Original*
G04 #@! TF.FileFunction,Copper,L1,Top*
G04 #@! TF.FilePolarity,Positive*
%FSLAX46Y46*%
G04 Gerber Fmt 4.6, Leading zero omitted, Abs format (unit mm)*
G04 Created by KiCad (PCBNEW 8.0.6) date 2024-12-30 14:11:03*
%MOMM*%
%LPD*%
G01*
G04 APERTURE LIST*
G04 Aperture macros list*
%AMRoundRect*
0 Rectangle with rounded corners*
0 $1 Rounding radius*
0 $2 $3 $4 $5 $6 $7 $8 $9 X,Y pos of 4 corners*
0 Add a 4 corners polygon primitive as box body*
4,1,4,$2,$3,$4,$5,$6,$7,$8,$9,$2,$3,0*
0 Add four circle primitives for the rounded corners*
1,1,$1+$1,$2,$3*
1,1,$1+$1,$4,$5*
1,1,$1+$1,$6,$7*
1,1,$1+$1,$8,$9*
0 Add four rect primitives between the rounded corners*
20,1,$1+$1,$2,$3,$4,$5,0*
20,1,$1+$1,$4,$5,$6,$7,0*
20,1,$1+$1,$6,$7,$8,$9,0*
20,1,$1+$1,$8,$9,$2,$3,0*%
G04 Aperture macros list end*
G04 #@! TA.AperFunction,ComponentPad*
%ADD10R,1.700000X1.700000*%
G04 #@! TD*
G04 #@! TA.AperFunction,ComponentPad*
%ADD11O,1.700000X1.700000*%
G04 #@! TD*
G04 #@! TA.AperFunction,ComponentPad*
%ADD12R,2.500000X2.500000*%
G04 #@! TD*
G04 #@! TA.AperFunction,ComponentPad*
%ADD13C,2.500000*%
G04 #@! TD*
G04 #@! TA.AperFunction,ComponentPad*
%ADD14R,1.600000X1.600000*%
G04 #@! TD*
G04 #@! TA.AperFunction,ComponentPad*
%ADD15O,1.600000X1.600000*%
G04 #@! TD*
G04 #@! TA.AperFunction,ComponentPad*
%ADD16RoundRect,0.250000X0.450000X-0.450000X0.450000X0.450000X-0.450000X0.450000X-0.450000X-0.450000X0*%
G04 #@! TD*
G04 #@! TA.AperFunction,ComponentPad*
%ADD17C,1.400000*%
G04 #@! TD*
G04 #@! TA.AperFunction,ComponentPad*
%ADD18R,1.560000X1.560000*%
G04 #@! TD*
G04 #@! TA.AperFunction,ComponentPad*
%ADD19C,1.560000*%
G04 #@! TD*
G04 #@! TA.AperFunction,ComponentPad*
%ADD20C,1.600000*%
G04 #@! TD*
G04 #@! TA.AperFunction,ComponentPad*
%ADD21R,1.500000X1.050000*%
G04 #@! TD*
G04 #@! TA.AperFunction,ComponentPad*
%ADD22O,1.500000X1.050000*%
G04 #@! TD*
G04 #@! TA.AperFunction,ComponentPad*
%ADD23R,1.905000X2.000000*%
G04 #@! TD*
G04 #@! TA.AperFunction,ComponentPad*
%ADD24O,1.905000X2.000000*%
G04 #@! TD*
G04 #@! TA.AperFunction,ViaPad*
%ADD25C,6.000000*%
G04 #@! TD*
G04 #@! TA.AperFunction,Conductor*
%ADD26C,0.600000*%
G04 #@! TD*
G04 #@! TA.AperFunction,Conductor*
%ADD27C,1.500000*%
G04 #@! TD*
G04 APERTURE END LIST*
D10*
X168420000Y-87500000D03*
D11*
X170960000Y-87500000D03*
X173500000Y-87500000D03*
D12*
X134500000Y-70500000D03*
D13*
X134500000Y-75500000D03*
D12*
X134500000Y-81500000D03*
D13*
X134500000Y-86500000D03*
D14*
X164620000Y-90800000D03*
D15*
X164620000Y-88260000D03*
X164620000Y-85720000D03*
X164620000Y-83180000D03*
X157000000Y-83180000D03*
X157000000Y-85720000D03*
X157000000Y-88260000D03*
X157000000Y-90800000D03*
D14*
X156700000Y-66700000D03*
D15*
X156700000Y-69240000D03*
X156700000Y-71780000D03*
X156700000Y-74320000D03*
X164320000Y-74320000D03*
X164320000Y-71780000D03*
X164320000Y-69240000D03*
X164320000Y-66700000D03*
D16*
X142200000Y-93000000D03*
D17*
X142200000Y-90500000D03*
X142200000Y-88000000D03*
X145500000Y-88000000D03*
X145500000Y-90500000D03*
X145500000Y-93000000D03*
D18*
X154000000Y-85740000D03*
D19*
X151500000Y-80740000D03*
X149000000Y-85740000D03*
D18*
X154000000Y-93680000D03*
D19*
X151500000Y-88680000D03*
X149000000Y-93680000D03*
D20*
X145500000Y-83000000D03*
D15*
X145500000Y-75380000D03*
D20*
X149000000Y-72500000D03*
D15*
X141380000Y-72500000D03*
D20*
X141380000Y-69000000D03*
D15*
X149000000Y-69000000D03*
D20*
X174810000Y-71500000D03*
D15*
X167190000Y-71500000D03*
X167190000Y-75000000D03*
D20*
X174810000Y-75000000D03*
D21*
X152640000Y-74730000D03*
D22*
X152640000Y-76000000D03*
X152640000Y-77270000D03*
D23*
X143920000Y-65000000D03*
D24*
X146460000Y-65000000D03*
X149000000Y-65000000D03*
D20*
X142500000Y-78000000D03*
X142500000Y-83000000D03*
D14*
X172500000Y-81000000D03*
D20*
X169000000Y-81000000D03*
X157000000Y-94000000D03*
X162000000Y-94000000D03*
X159000000Y-80000000D03*
X164000000Y-80000000D03*
X164000000Y-77470000D03*
X159000000Y-77470000D03*
X153500000Y-71500000D03*
X153500000Y-66500000D03*
D25*
X173000000Y-93000000D03*
X173000000Y-64000000D03*
X133500000Y-93000000D03*
X133500000Y-64000000D03*
D26*
X152112500Y-95567500D02*
X154000000Y-93680000D01*
X147002500Y-94297500D02*
X148272500Y-95567500D01*
X147002500Y-92002500D02*
X147002500Y-94297500D01*
X148272500Y-95567500D02*
X152112500Y-95567500D01*
X145500000Y-90500000D02*
X147002500Y-92002500D01*
D27*
X146460000Y-63540000D02*
X146460000Y-65000000D01*
X147500000Y-62500000D02*
X146460000Y-63540000D01*
X164320000Y-63672500D02*
X163147500Y-62500000D01*
X164320000Y-66700000D02*
X164320000Y-63672500D01*
X163147500Y-62500000D02*
X147500000Y-62500000D01*
D26*
X164620000Y-83180000D02*
X170640000Y-83180000D01*
D27*
X170960000Y-83500000D02*
X170960000Y-82540000D01*
X170960000Y-87500000D02*
X170960000Y-83500000D01*
D26*
X170640000Y-83180000D02*
X170960000Y-83500000D01*
X166640000Y-85720000D02*
X168420000Y-87500000D01*
X164620000Y-85720000D02*
X166640000Y-85720000D01*
X169000000Y-71000000D02*
X169000000Y-73190000D01*
X167240000Y-69240000D02*
X169000000Y-71000000D01*
X169000000Y-73190000D02*
X167190000Y-75000000D01*
X164320000Y-69240000D02*
X167240000Y-69240000D01*
X164600000Y-71500000D02*
X164320000Y-71780000D01*
X167190000Y-71500000D02*
X164600000Y-71500000D01*
X174810000Y-75000000D02*
X172500000Y-75000000D01*
D27*
X172500000Y-75000000D02*
X172500000Y-81000000D01*
X172500000Y-72000000D02*
X172500000Y-75000000D01*
X170960000Y-82540000D02*
X172500000Y-81000000D01*
X164320000Y-66700000D02*
X167200000Y-66700000D01*
X167200000Y-66700000D02*
X172500000Y-72000000D01*
D26*
X164000000Y-74640000D02*
X164320000Y-74320000D01*
X164000000Y-77470000D02*
X164000000Y-74640000D01*
X153500000Y-70337500D02*
X153500000Y-71500000D01*
X154597500Y-69240000D02*
X153500000Y-70337500D01*
X156700000Y-69240000D02*
X154597500Y-69240000D01*
X162535000Y-66700000D02*
X161607500Y-67627500D01*
X164320000Y-66700000D02*
X162535000Y-66700000D01*
X161607500Y-71755000D02*
X161607500Y-67627500D01*
X159042500Y-74320000D02*
X161607500Y-71755000D01*
X156700000Y-74320000D02*
X159042500Y-74320000D01*
X160075000Y-75620000D02*
X155312500Y-75620000D01*
X160972500Y-76517500D02*
X160075000Y-75620000D01*
X154940000Y-75247500D02*
X154940000Y-73540000D01*
X160972500Y-86995000D02*
X160972500Y-76517500D01*
X162237500Y-88260000D02*
X160972500Y-86995000D01*
X155312500Y-75620000D02*
X154940000Y-75247500D01*
X154940000Y-73540000D02*
X156700000Y-71780000D01*
X164620000Y-88260000D02*
X162237500Y-88260000D01*
X157490000Y-80000000D02*
X159000000Y-80000000D01*
X157000000Y-80490000D02*
X157490000Y-80000000D01*
X157000000Y-83180000D02*
X157000000Y-80490000D01*
X157475000Y-88260000D02*
X159067500Y-89852500D01*
X157000000Y-88260000D02*
X157475000Y-88260000D01*
X159067500Y-91932500D02*
X159067500Y-89852500D01*
X157000000Y-94000000D02*
X159067500Y-91932500D01*
X157000000Y-88260000D02*
X157000000Y-85720000D01*
X157000000Y-85720000D02*
X154782500Y-83502500D01*
X151500000Y-83502500D02*
X151500000Y-85355000D01*
X151500000Y-80740000D02*
X151500000Y-83502500D01*
X154782500Y-83502500D02*
X151500000Y-83502500D01*
X150177500Y-85725000D02*
X150162500Y-85740000D01*
X150162500Y-85740000D02*
X149000000Y-85740000D01*
X151130000Y-85725000D02*
X150177500Y-85725000D01*
X151500000Y-85355000D02*
X151130000Y-85725000D01*
X154000000Y-87617500D02*
X154000000Y-85740000D01*
X152937500Y-88680000D02*
X154000000Y-87617500D01*
X151500000Y-88680000D02*
X152937500Y-88680000D01*
X147690000Y-88000000D02*
X145500000Y-88000000D01*
X148370000Y-88680000D02*
X147690000Y-88000000D01*
X151500000Y-88680000D02*
X148370000Y-88680000D01*
X150177500Y-93662500D02*
X150160000Y-93680000D01*
X150160000Y-93680000D02*
X149000000Y-93680000D01*
X151500000Y-92975000D02*
X150812500Y-93662500D01*
X151500000Y-88680000D02*
X151500000Y-92975000D01*
X150812500Y-93662500D02*
X150177500Y-93662500D01*
X154945000Y-90800000D02*
X157000000Y-90800000D01*
X154000000Y-91745000D02*
X154945000Y-90800000D01*
X154000000Y-93680000D02*
X154000000Y-91745000D01*
X138112500Y-88265000D02*
X138112500Y-71437500D01*
X137145000Y-70500000D02*
X134500000Y-70500000D01*
X140347500Y-90500000D02*
X138112500Y-88265000D01*
X138112500Y-71437500D02*
X137160000Y-70485000D01*
X137160000Y-70485000D02*
X137145000Y-70500000D01*
X142200000Y-90500000D02*
X140347500Y-90500000D01*
X145500000Y-83000000D02*
X142500000Y-83000000D01*
X142200000Y-83300000D02*
X142500000Y-83000000D01*
X142200000Y-88000000D02*
X142200000Y-83300000D01*
X149000000Y-75287500D02*
X148907500Y-75380000D01*
X148907500Y-75380000D02*
X145500000Y-75380000D01*
X150310000Y-75380000D02*
X148907500Y-75380000D01*
X149000000Y-72500000D02*
X149000000Y-75287500D01*
X150930000Y-76000000D02*
X150310000Y-75380000D01*
X152640000Y-76000000D02*
X150930000Y-76000000D01*
X150812500Y-70812500D02*
X149000000Y-69000000D01*
X150812500Y-72707500D02*
X150812500Y-70812500D01*
X152640000Y-74535000D02*
X150812500Y-72707500D01*
X152640000Y-74730000D02*
X152640000Y-74535000D01*
X143920000Y-66767500D02*
X143920000Y-65000000D01*
X146152500Y-69000000D02*
X143920000Y-66767500D01*
X149000000Y-69000000D02*
X146152500Y-69000000D01*
M02*
