G04 #@! TF.GenerationSoftware,KiCad,Pcbnew,8.0.6*
G04 #@! TF.CreationDate,2024-12-30T14:11:03+01:00*
G04 #@! TF.ProjectId,UselessBox,5573656c-6573-4734-926f-782e6b696361,rev?*
G04 #@! TF.SameCoordinates,Original*
G04 #@! TF.FileFunction,Soldermask,Top*
G04 #@! TF.FilePolarity,Negative*
%FSLAX46Y46*%
G04 Gerber Fmt 4.6, Leading zero omitted, Abs format (unit mm)*
G04 Created by KiCad (PCBNEW 8.0.6) date 2024-12-30 14:11:03*
%MOMM*%
%LPD*%
G01*
G04 APERTURE LIST*
G04 Aperture macros list*
%AMRoundRect*
0 Rectangle with rounded corners*
0 $1 Rounding radius*
0 $2 $3 $4 $5 $6 $7 $8 $9 X,Y pos of 4 corners*
0 Add a 4 corners polygon primitive as box body*
4,1,4,$2,$3,$4,$5,$6,$7,$8,$9,$2,$3,0*
0 Add four circle primitives for the rounded corners*
1,1,$1+$1,$2,$3*
1,1,$1+$1,$4,$5*
1,1,$1+$1,$6,$7*
1,1,$1+$1,$8,$9*
0 Add four rect primitives between the rounded corners*
20,1,$1+$1,$2,$3,$4,$5,0*
20,1,$1+$1,$4,$5,$6,$7,0*
20,1,$1+$1,$6,$7,$8,$9,0*
20,1,$1+$1,$8,$9,$2,$3,0*%
G04 Aperture macros list end*
%ADD10C,3.050000*%
%ADD11R,1.700000X1.700000*%
%ADD12O,1.700000X1.700000*%
%ADD13R,2.500000X2.500000*%
%ADD14C,2.500000*%
%ADD15R,1.600000X1.600000*%
%ADD16O,1.600000X1.600000*%
%ADD17RoundRect,0.250000X0.450000X-0.450000X0.450000X0.450000X-0.450000X0.450000X-0.450000X-0.450000X0*%
%ADD18C,1.400000*%
%ADD19R,1.560000X1.560000*%
%ADD20C,1.560000*%
%ADD21C,1.600000*%
%ADD22R,1.500000X1.050000*%
%ADD23O,1.500000X1.050000*%
%ADD24R,1.905000X2.000000*%
%ADD25O,1.905000X2.000000*%
G04 APERTURE END LIST*
D10*
X135025000Y-93000000D02*
G75*
G02*
X131975000Y-93000000I-1525000J0D01*
G01*
X131975000Y-93000000D02*
G75*
G02*
X135025000Y-93000000I1525000J0D01*
G01*
X174525000Y-93000000D02*
G75*
G02*
X171475000Y-93000000I-1525000J0D01*
G01*
X171475000Y-93000000D02*
G75*
G02*
X174525000Y-93000000I1525000J0D01*
G01*
X174525000Y-64000000D02*
G75*
G02*
X171475000Y-64000000I-1525000J0D01*
G01*
X171475000Y-64000000D02*
G75*
G02*
X174525000Y-64000000I1525000J0D01*
G01*
X135025000Y-64000000D02*
G75*
G02*
X131975000Y-64000000I-1525000J0D01*
G01*
X131975000Y-64000000D02*
G75*
G02*
X135025000Y-64000000I1525000J0D01*
G01*
D11*
X168420000Y-87500000D03*
D12*
X170960000Y-87500000D03*
X173500000Y-87500000D03*
D13*
X134500000Y-70500000D03*
D14*
X134500000Y-75500000D03*
D13*
X134500000Y-81500000D03*
D14*
X134500000Y-86500000D03*
D15*
X164620000Y-90800000D03*
D16*
X164620000Y-88260000D03*
X164620000Y-85720000D03*
X164620000Y-83180000D03*
X157000000Y-83180000D03*
X157000000Y-85720000D03*
X157000000Y-88260000D03*
X157000000Y-90800000D03*
D15*
X156700000Y-66700000D03*
D16*
X156700000Y-69240000D03*
X156700000Y-71780000D03*
X156700000Y-74320000D03*
X164320000Y-74320000D03*
X164320000Y-71780000D03*
X164320000Y-69240000D03*
X164320000Y-66700000D03*
D17*
X142200000Y-93000000D03*
D18*
X142200000Y-90500000D03*
X142200000Y-88000000D03*
X145500000Y-88000000D03*
X145500000Y-90500000D03*
X145500000Y-93000000D03*
D19*
X154000000Y-85740000D03*
D20*
X151500000Y-80740000D03*
X149000000Y-85740000D03*
D19*
X154000000Y-93680000D03*
D20*
X151500000Y-88680000D03*
X149000000Y-93680000D03*
D21*
X145500000Y-83000000D03*
D16*
X145500000Y-75380000D03*
D21*
X149000000Y-72500000D03*
D16*
X141380000Y-72500000D03*
D21*
X141380000Y-69000000D03*
D16*
X149000000Y-69000000D03*
D21*
X174810000Y-71500000D03*
D16*
X167190000Y-71500000D03*
X167190000Y-75000000D03*
D21*
X174810000Y-75000000D03*
D22*
X152640000Y-74730000D03*
D23*
X152640000Y-76000000D03*
X152640000Y-77270000D03*
D24*
X143920000Y-65000000D03*
D25*
X146460000Y-65000000D03*
X149000000Y-65000000D03*
D21*
X142500000Y-78000000D03*
X142500000Y-83000000D03*
D15*
X172500000Y-81000000D03*
D21*
X169000000Y-81000000D03*
X157000000Y-94000000D03*
X162000000Y-94000000D03*
X159000000Y-80000000D03*
X164000000Y-80000000D03*
X164000000Y-77470000D03*
X159000000Y-77470000D03*
X153500000Y-71500000D03*
X153500000Y-66500000D03*
M02*
